<svg xmlns="http://www.w3.org/2000/svg" viewBox="0 0 194.5 194.5"><defs><style>.cls-1{fill:#10377a;}.cls-2{fill:#fff;}</style></defs><title>icon-milenio_2</title><g id="Layer_2" data-name="Layer 2"><g id="BG"><rect class="cls-1" width="194.5" height="194.5" rx="19.45" ry="19.45"/><path class="cls-2" d="M76.94,84.52a1.67,1.67,0,0,0-.4-3A194.43,194.43,0,0,1,32.62,62a1.31,1.31,0,0,0-1.61.16L27.61,65.5a1.17,1.17,0,0,0,.06,1.74C34,72.49,49.67,79,62.85,83c0,0-24,15.6-28.74,26.94-5.12,12.32.15,19.81,2.13,22a2.2,2.2,0,0,0,1.55.79h9.12C52.08,131.82,32.75,114.18,76.94,84.52Z"/><path class="cls-2" d="M166.89,65.49l-3.41-3.34a1.31,1.31,0,0,0-1.61-.18,171.25,171.25,0,0,1-18.36,9.77A74.81,74.81,0,0,1,113,78.46c9.19-3.54,17.76-7.66,22.09-11.23a1.17,1.17,0,0,0,.06-1.74l-3.41-3.34a1.31,1.31,0,0,0-1.61-.18,183.31,183.31,0,0,1-31,15A78.2,78.2,0,0,1,84,72.21q-2.82-1.27-5.5-2.6L77.22,69v0q-6.71-3.37-12.6-7a1.31,1.31,0,0,0-1.61.18L59.6,65.49a1.17,1.17,0,0,0,.06,1.74C66,72.48,81.66,79,94.84,83c0,0-24,15.6-28.74,26.94-5.12,12.32.15,19.81,2.13,22a2.2,2.2,0,0,0,1.55.79H78.9c4.32-.9-8.47-13.3,13-34.61a38.94,38.94,0,0,1,6.19-4.23c27.92,24,13.1,38,17.71,38.84h9.12a2.2,2.2,0,0,0,1.55-.79c2-2.18,7.25-9.61,2.13-21.94-2.78-6.69-12.29-14.87-19.61-20.46,1.51-.41,3-.75,4.44-1a2.58,2.58,0,0,1,.89,0,44.18,44.18,0,0,1,16.74,6.37c26.31,23.33,12,37,16.51,37.88h9.12a2.2,2.2,0,0,0,1.55-.79c2-2.18,7.25-9.61,2.13-21.94-4.71-11.34-28.74-27-28.74-27,13.19-4,28.81-10.52,35.18-15.77A1.19,1.19,0,0,0,166.89,65.49Z"/></g></g></svg>