<svg width="23" height="23" viewBox="0 0 23 23" fill="none" xmlns="http://www.w3.org/2000/svg">
<path d="M4.34578 3.88763C4.01087 3.88763 3.68349 3.98694 3.40503 4.17301C3.12657 4.35907 2.90953 4.62353 2.78137 4.93294C2.65321 5.24235 2.61967 5.58282 2.68501 5.91128C2.75035 6.23975 2.91162 6.54147 3.14843 6.77828C3.38524 7.0151 3.68696 7.17637 4.01543 7.24171C4.3439 7.30704 4.68437 7.27351 4.99378 7.14535C5.30319 7.01718 5.56765 6.80015 5.75371 6.52169C5.93977 6.24322 6.03908 5.91584 6.03908 5.58094C6.03908 5.13185 5.86068 4.70115 5.54312 4.38359C5.22557 4.06604 4.79487 3.88763 4.34578 3.88763ZM4.34578 9.53198C4.01087 9.53198 3.68349 9.63129 3.40503 9.81735C3.12657 10.0034 2.90953 10.2679 2.78137 10.5773C2.65321 10.8867 2.61967 11.2272 2.68501 11.5556C2.75035 11.8841 2.91162 12.1858 3.14843 12.4226C3.38524 12.6594 3.68696 12.8207 4.01543 12.8861C4.3439 12.9514 4.68437 12.9179 4.99378 12.7897C5.30319 12.6615 5.56765 12.4445 5.75371 12.166C5.93977 11.8876 6.03908 11.5602 6.03908 11.2253C6.03908 10.7762 5.86068 10.3455 5.54312 10.0279C5.22557 9.71038 4.79487 9.53198 4.34578 9.53198ZM4.34578 15.1763C4.01087 15.1763 3.68349 15.2756 3.40503 15.4617C3.12657 15.6478 2.90953 15.9122 2.78137 16.2216C2.65321 16.531 2.61967 16.8715 2.68501 17.2C2.75035 17.5284 2.91162 17.8302 3.14843 18.067C3.38524 18.3038 3.68696 18.4651 4.01543 18.5304C4.3439 18.5957 4.68437 18.5622 4.99378 18.434C5.30319 18.3059 5.56765 18.0888 5.75371 17.8104C5.93977 17.5319 6.03908 17.2045 6.03908 16.8696C6.03908 16.4205 5.86068 15.9898 5.54312 15.6723C5.22557 15.3547 4.79487 15.1763 4.34578 15.1763ZM20.1499 15.7408H8.86125C8.71156 15.7408 8.56799 15.8002 8.46214 15.9061C8.35629 16.0119 8.29682 16.1555 8.29682 16.3052V17.4341C8.29682 17.5838 8.35629 17.7273 8.46214 17.8332C8.56799 17.939 8.71156 17.9985 8.86125 17.9985H20.1499C20.2996 17.9985 20.4432 17.939 20.5491 17.8332C20.6549 17.7273 20.7144 17.5838 20.7144 17.4341V16.3052C20.7144 16.1555 20.6549 16.0119 20.5491 15.9061C20.4432 15.8002 20.2996 15.7408 20.1499 15.7408ZM20.1499 4.45207H8.86125C8.71156 4.45207 8.56799 4.51154 8.46214 4.61739C8.35629 4.72324 8.29682 4.86681 8.29682 5.0165V6.14537C8.29682 6.29507 8.35629 6.43864 8.46214 6.54449C8.56799 6.65034 8.71156 6.70981 8.86125 6.70981H20.1499C20.2996 6.70981 20.4432 6.65034 20.5491 6.54449C20.6549 6.43864 20.7144 6.29507 20.7144 6.14537V5.0165C20.7144 4.86681 20.6549 4.72324 20.5491 4.61739C20.4432 4.51154 20.2996 4.45207 20.1499 4.45207ZM20.1499 10.0964H8.86125C8.71156 10.0964 8.56799 10.1559 8.46214 10.2617C8.35629 10.3676 8.29682 10.5112 8.29682 10.6608V11.7897C8.29682 11.9394 8.35629 12.083 8.46214 12.1888C8.56799 12.2947 8.71156 12.3542 8.86125 12.3542H20.1499C20.2996 12.3542 20.4432 12.2947 20.5491 12.1888C20.6549 12.083 20.7144 11.9394 20.7144 11.7897V10.6608C20.7144 10.5112 20.6549 10.3676 20.5491 10.2617C20.4432 10.1559 20.2996 10.0964 20.1499 10.0964Z" fill="white"/>
</svg>
