<svg width="22" height="23" viewBox="0 0 22 23" fill="none" xmlns="http://www.w3.org/2000/svg">
<path d="M3.49946 4.00183C3.16455 4.00183 2.83717 4.10114 2.55871 4.2872C2.28025 4.47327 2.06321 4.73772 1.93505 5.04714C1.80689 5.35655 1.77335 5.69701 1.83869 6.02548C1.90403 6.35395 2.0653 6.65567 2.30211 6.89248C2.53892 7.12929 2.84064 7.29057 3.16911 7.3559C3.49758 7.42124 3.83804 7.38771 4.14746 7.25954C4.45687 7.13138 4.72132 6.91435 4.90739 6.63588C5.09345 6.35742 5.19276 6.03004 5.19276 5.69513C5.19276 5.24604 5.01436 4.81534 4.6968 4.49779C4.37925 4.18023 3.94855 4.00183 3.49946 4.00183ZM3.49946 9.64618C3.16455 9.64618 2.83717 9.74549 2.55871 9.93155C2.28025 10.1176 2.06321 10.3821 1.93505 10.6915C1.80689 11.0009 1.77335 11.3414 1.83869 11.6698C1.90403 11.9983 2.0653 12.3 2.30211 12.5368C2.53892 12.7736 2.84064 12.9349 3.16911 13.0002C3.49758 13.0656 3.83804 13.0321 4.14746 12.9039C4.45687 12.7757 4.72132 12.5587 4.90739 12.2802C5.09345 12.0018 5.19276 11.6744 5.19276 11.3395C5.19276 10.8904 5.01436 10.4597 4.6968 10.1421C4.37925 9.82458 3.94855 9.64618 3.49946 9.64618ZM3.49946 15.2905C3.16455 15.2905 2.83717 15.3898 2.55871 15.5759C2.28025 15.762 2.06321 16.0264 1.93505 16.3358C1.80689 16.6452 1.77335 16.9857 1.83869 17.3142C1.90403 17.6426 2.0653 17.9444 2.30211 18.1812C2.53892 18.418 2.84064 18.5793 3.16911 18.6446C3.49758 18.7099 3.83804 18.6764 4.14746 18.5482C4.45687 18.4201 4.72132 18.203 4.90739 17.9246C5.09345 17.6461 5.19276 17.3187 5.19276 16.9838C5.19276 16.5347 5.01436 16.104 4.6968 15.7865C4.37925 15.4689 3.94855 15.2905 3.49946 15.2905ZM19.3036 15.855H8.01493C7.86523 15.855 7.72167 15.9144 7.61582 16.0203C7.50996 16.1261 7.4505 16.2697 7.4505 16.4194V17.5483C7.4505 17.698 7.50996 17.8415 7.61582 17.9474C7.72167 18.0532 7.86523 18.1127 8.01493 18.1127H19.3036C19.4533 18.1127 19.5969 18.0532 19.7027 17.9474C19.8086 17.8415 19.8681 17.698 19.8681 17.5483V16.4194C19.8681 16.2697 19.8086 16.1261 19.7027 16.0203C19.5969 15.9144 19.4533 15.855 19.3036 15.855ZM19.3036 4.56627H8.01493C7.86523 4.56627 7.72167 4.62573 7.61582 4.73158C7.50996 4.83744 7.4505 4.981 7.4505 5.1307V6.25957C7.4505 6.40927 7.50996 6.55283 7.61582 6.65868C7.72167 6.76454 7.86523 6.824 8.01493 6.824H19.3036C19.4533 6.824 19.5969 6.76454 19.7027 6.65868C19.8086 6.55283 19.8681 6.40927 19.8681 6.25957V5.1307C19.8681 4.981 19.8086 4.83744 19.7027 4.73158C19.5969 4.62573 19.4533 4.56627 19.3036 4.56627ZM19.3036 10.2106H8.01493C7.86523 10.2106 7.72167 10.2701 7.61582 10.3759C7.50996 10.4818 7.4505 10.6253 7.4505 10.775V11.9039C7.4505 12.0536 7.50996 12.1972 7.61582 12.303C7.72167 12.4089 7.86523 12.4683 8.01493 12.4683H19.3036C19.4533 12.4683 19.5969 12.4089 19.7027 12.303C19.8086 12.1972 19.8681 12.0536 19.8681 11.9039V10.775C19.8681 10.6253 19.8086 10.4818 19.7027 10.3759C19.5969 10.2701 19.4533 10.2106 19.3036 10.2106Z" fill="#AD8900"/>
</svg>
