<svg width="22" height="23" viewBox="0 0 22 23" fill="none" xmlns="http://www.w3.org/2000/svg">
<path d="M9.7082 13.4894V19.0171L10.485 20.182C10.6526 20.4332 11.0219 20.4332 11.1895 20.182L11.966 19.0171V13.4894C11.5994 13.5572 11.223 13.5974 10.8371 13.5974C10.4512 13.5974 10.0747 13.5572 9.7082 13.4894ZM10.8371 2.30847C8.03144 2.30847 5.75708 4.58283 5.75708 7.38848C5.75708 10.1941 8.03144 12.4685 10.8371 12.4685C13.6427 12.4685 15.9171 10.1941 15.9171 7.38848C15.9171 4.58283 13.6427 2.30847 10.8371 2.30847ZM10.8371 4.98959C9.51417 4.98959 8.4382 6.06556 8.4382 7.38848C8.4382 7.62202 8.2484 7.81182 8.01486 7.81182C7.78132 7.81182 7.59153 7.62202 7.59153 7.38848C7.59153 5.59884 9.0478 4.14292 10.8371 4.14292C11.0706 4.14292 11.2604 4.33271 11.2604 4.56625C11.2604 4.79979 11.0706 4.98959 10.8371 4.98959Z" fill="#AD8900"/>
</svg>
