<svg width="23" height="23" viewBox="0 0 23 23" fill="none" xmlns="http://www.w3.org/2000/svg">
<path d="M10.2974 13.3753V18.903L11.0742 20.0678C11.2418 20.319 11.6111 20.319 11.7787 20.0678L12.5552 18.903V13.3753C12.1886 13.443 11.8122 13.4832 11.4263 13.4832C11.0403 13.4832 10.6639 13.443 10.2974 13.3753ZM11.4263 2.19432C8.62063 2.19432 6.34627 4.46868 6.34627 7.27433C6.34627 10.08 8.62063 12.3543 11.4263 12.3543C14.2319 12.3543 16.5063 10.08 16.5063 7.27433C16.5063 4.46868 14.2319 2.19432 11.4263 2.19432ZM11.4263 4.87544C10.1034 4.87544 9.02738 5.95141 9.02738 7.27433C9.02738 7.50787 8.83759 7.69766 8.60405 7.69766C8.37051 7.69766 8.18072 7.50787 8.18072 7.27433C8.18072 5.48469 9.63699 4.02877 11.4263 4.02877C11.6598 4.02877 11.8496 4.21856 11.8496 4.4521C11.8496 4.68564 11.6598 4.87544 11.4263 4.87544Z" fill="white"/>
</svg>
