<svg width="22" height="20" viewBox="0 0 22 20" fill="none" xmlns="http://www.w3.org/2000/svg">
<g clip-path="url(#clip0)">
<path d="M21.3405 2.03368C20.0079 1.4261 18.6742 1.19495 17.3411 1.19495C13.1095 1.19457 8.87825 3.52293 4.64664 3.52293C3.58538 3.52293 2.52482 3.37655 1.46356 3.01058C1.34435 2.9695 1.22479 2.95009 1.10798 2.95009C0.516713 2.95009 0 3.4475 0 4.13798V15.9855C0 16.4572 0.248393 16.9042 0.647265 17.0857C1.97993 17.6936 3.31363 17.9248 4.64664 17.9248C8.87825 17.9248 13.1099 15.5964 17.3415 15.5964C18.4027 15.5964 19.4633 15.7428 20.5246 16.1088C20.6438 16.1499 20.7633 16.1693 20.8801 16.1693C21.4714 16.1693 21.9881 15.6719 21.9881 14.9814V3.13419C21.9878 2.66217 21.7394 2.21554 21.3405 2.03368ZM1.64908 4.9375C2.34032 5.12571 3.0618 5.22019 3.80389 5.27098C3.60187 6.3685 2.71412 7.19566 1.64908 7.19566V4.9375ZM1.64908 15.5804V13.7961C2.8299 13.7961 3.78533 14.8145 3.8379 16.089C3.06386 16.0214 2.34032 15.8533 1.64908 15.5804ZM10.9939 13.1448C9.4757 13.1448 8.24542 11.5394 8.24542 9.55987C8.24542 7.57992 9.47605 5.9749 10.9939 5.9749C12.5117 5.9749 13.7424 7.57992 13.7424 9.55987C13.7424 11.5402 12.5114 13.1448 10.9939 13.1448ZM20.3387 14.1822C19.7368 14.0183 19.1119 13.9264 18.4725 13.8671C18.6742 12.8931 19.4173 12.1537 20.3387 12.0268V14.1822ZM20.3387 5.36508C19.2774 5.21907 18.4539 4.25598 18.4213 3.0666C19.0926 3.14763 19.7299 3.29925 20.3387 3.53936V5.36508Z" fill="#AD8900"/>
</g>
<defs>
<clipPath id="clip0">
<rect width="21.9878" height="19.1198" fill="white"/>
</clipPath>
</defs>
</svg>
