<svg width="23" height="20" viewBox="0 0 23 20" fill="none" xmlns="http://www.w3.org/2000/svg">
<g clip-path="url(#clip0)">
<path d="M21.448 2.56749C20.1153 1.95992 18.7816 1.72876 17.4486 1.72876C13.217 1.72839 8.98571 4.05675 4.75409 4.05675C3.69284 4.05675 2.63227 3.91036 1.57101 3.5444C1.4518 3.50332 1.33224 3.4839 1.21543 3.4839C0.624165 3.4839 0.107452 3.98131 0.107452 4.67179V16.5194C0.107452 16.991 0.355846 17.438 0.754718 17.6195C2.08738 18.2274 3.42108 18.4586 4.75409 18.4586C8.98571 18.4586 13.2173 16.1302 17.4489 16.1302C18.5102 16.1302 19.5708 16.2766 20.632 16.6426C20.7512 16.6837 20.8708 16.7031 20.9876 16.7031C21.5789 16.7031 22.0956 16.2057 22.0956 15.5152V3.668C22.0952 3.19598 21.8468 2.74935 21.448 2.56749ZM1.75654 5.47131C2.44778 5.65953 3.16925 5.754 3.91134 5.80479C3.70933 6.90231 2.82157 7.72947 1.75654 7.72947V5.47131ZM1.75654 16.1142V14.3299C2.93735 14.3299 3.89279 15.3483 3.94535 16.6228C3.17131 16.5552 2.44778 16.3872 1.75654 16.1142ZM11.1013 13.6786C9.58316 13.6786 8.35287 12.0733 8.35287 10.0937C8.35287 8.11373 9.5835 6.50871 11.1013 6.50871C12.6192 6.50871 13.8498 8.11373 13.8498 10.0937C13.8498 12.074 12.6188 13.6786 11.1013 13.6786ZM20.4462 14.716C19.8442 14.5521 19.2193 14.4602 18.5799 14.4009C18.7816 13.427 19.5247 12.6876 20.4462 12.5606V14.716ZM20.4462 5.8989C19.3849 5.75288 18.5614 4.7898 18.5287 3.60041C19.2001 3.68145 19.8374 3.83306 20.4462 4.07318V5.8989Z" fill="white"/>
</g>
<defs>
<clipPath id="clip0">
<rect width="21.9878" height="19.1198" fill="white" transform="translate(0.107452 0.533798)"/>
</clipPath>
</defs>
</svg>
