<?xml version="1.0" standalone="no"?>
<!DOCTYPE svg PUBLIC "-//W3C//DTD SVG 20010904//EN"
 "http://www.w3.org/TR/2001/REC-SVG-20010904/DTD/svg10.dtd">
<svg version="1.0" xmlns="http://www.w3.org/2000/svg"
 width="558.000000pt" height="558.000000pt" viewBox="0 0 558.000000 558.000000"
 preserveAspectRatio="xMidYMid meet">
<metadata>
Created by potrace 1.11, written by Peter Selinger 2001-2013
</metadata>
<g transform="translate(0.000000,558.000000) scale(0.100000,-0.100000)"
fill="#000000" stroke="none">
<path d="M421 5564 c-205 -55 -373 -231 -411 -430 -8 -43 -10 -698 -8 -2379
l3 -2320 27 -68 c70 -173 188 -285 363 -343 l70 -23 2320 0 c1992 0 2328 2
2375 15 199 52 364 222 406 417 11 50 13 495 14 2362 0 2537 5 2350 -63 2484
-34 69 -125 169 -194 215 -23 16 -73 40 -110 55 l-68 26 -2335 2 c-2021 1
-2342 0 -2389 -13z"/>
</g>
</svg>
