<?xml version="1.0" standalone="no"?>
<!DOCTYPE svg PUBLIC "-//W3C//DTD SVG 20010904//EN"
 "http://www.w3.org/TR/2001/REC-SVG-20010904/DTD/svg10.dtd">
<svg version="1.0" xmlns="http://www.w3.org/2000/svg"
 width="16.000000pt" height="16.000000pt" viewBox="0 0 16.000000 16.000000"
 preserveAspectRatio="xMidYMid meet">
<metadata>
Created by potrace 1.11, written by Peter Selinger 2001-2013
</metadata>
<g transform="translate(0.000000,16.000000) scale(0.002374,-0.002374)"
fill="#000000" stroke="none">
<path d="M2948 6725 c-2 -1 -41 -5 -88 -9 -223 -17 -454 -109 -630 -251 -92
-74 -100 -82 -171 -166 -161 -189 -256 -423 -274 -674 -4 -44 -10 -102 -15
-130 -5 -27 -12 -63 -14 -80 -21 -133 -79 -461 -82 -464 -2 -2 -117 -4 -256
-3 l-252 1 -59 -26 c-100 -45 -145 -119 -162 -263 -2 -25 -7 -56 -9 -70 -4
-23 -11 -73 -21 -155 -5 -33 -24 -176 -30 -215 -2 -14 -6 -41 -9 -60 -19 -141
-27 -199 -31 -225 -2 -16 -13 -100 -25 -185 -12 -85 -23 -171 -26 -190 -2 -19
-9 -64 -14 -100 -5 -36 -12 -85 -15 -110 -4 -25 -8 -56 -10 -70 -2 -14 -6 -50
-10 -80 -3 -30 -10 -77 -15 -105 -5 -27 -12 -75 -15 -105 -3 -30 -10 -80 -15
-110 -5 -30 -12 -80 -15 -110 -4 -30 -15 -116 -26 -190 -11 -74 -22 -153 -25
-175 -5 -43 -23 -173 -29 -215 -2 -14 -6 -43 -9 -65 -17 -130 -37 -277 -40
-292 -2 -10 -7 -45 -11 -78 -4 -32 -8 -67 -10 -76 -2 -9 -6 -40 -10 -70 -3
-30 -15 -112 -25 -184 -10 -71 -22 -152 -25 -180 -3 -27 -10 -75 -15 -105 -5
-30 -12 -77 -15 -105 -3 -27 -12 -97 -20 -155 -8 -58 -17 -121 -19 -140 -3
-19 -7 -51 -10 -70 -24 -155 -46 -340 -46 -392 0 -77 26 -134 86 -186 89 -79
-184 -72 2959 -70 l2810 3 43 23 c117 63 171 180 149 327 -4 22 -9 60 -12 85
-3 25 -8 52 -10 60 -2 8 -6 42 -10 75 -3 33 -8 67 -10 75 -2 8 -6 40 -10 71
-3 31 -7 65 -9 76 -2 10 -7 46 -11 78 -4 33 -9 74 -12 90 -6 39 -8 56 -28 205
-9 69 -18 136 -20 150 -2 14 -6 45 -10 70 -4 25 -8 57 -11 71 -2 15 -6 47 -9
70 -3 24 -10 79 -16 121 -5 43 -12 92 -14 109 -2 17 -6 42 -9 57 -3 15 -8 52
-11 82 -4 30 -8 66 -10 80 -13 84 -18 125 -40 284 -8 66 -17 131 -19 145 -2
14 -7 49 -11 76 -3 28 -8 61 -10 75 -2 14 -6 45 -9 70 -6 51 -35 262 -41 301
-3 14 -14 95 -25 180 -30 230 -60 450 -65 484 -11 76 -35 255 -40 300 -3 28
-8 61 -10 75 -6 28 -7 38 -35 250 -12 85 -23 169 -25 185 -3 17 -14 97 -25
179 -27 200 -59 262 -165 319 -38 21 -53 22 -350 23 l-310 2 -7 38 c-3 22 -10
62 -13 89 -4 28 -8 53 -10 56 -3 4 -27 142 -52 294 -2 17 -11 62 -20 100 -8
39 -17 93 -19 120 -3 28 -9 73 -15 100 -6 28 -13 61 -15 74 -9 44 -46 146 -79
216 -107 225 -290 417 -517 539 -246 134 -580 171 -857 96 -31 -8 -51 -8 -75
0 -18 6 -42 12 -52 14 -10 3 -39 9 -64 14 -25 6 -79 14 -120 17 -41 4 -87 8
-102 10 -15 1 -29 1 -30 0z m1087 -512 c105 -51 182 -112 251 -198 113 -141
157 -261 169 -460 3 -49 8 -98 11 -107 7 -23 23 -110 39 -208 3 -19 8 -42 10
-50 2 -8 7 -34 10 -57 3 -23 12 -74 19 -113 10 -51 11 -70 2 -70 -6 -1 -120
-2 -254 -3 l-242 -2 5 25 c6 32 12 68 26 150 5 36 14 83 19 105 5 22 11 58 14
80 7 45 13 76 22 120 14 62 13 250 -2 330 -29 154 -91 313 -165 422 -15 24
-33 52 -39 64 -11 19 -10 20 12 14 12 -4 55 -23 93 -42z m-1282 25 c-4 -7 -24
-38 -44 -68 -157 -238 -217 -517 -170 -785 21 -121 27 -152 36 -202 3 -16 8
-44 11 -63 3 -19 11 -65 18 -102 l13 -68 -44 -1 c-23 0 -132 -1 -240 -1 l-198
-1 -1 33 c0 18 6 60 13 94 7 33 15 77 18 96 15 94 46 267 51 281 2 9 7 60 10
113 15 282 162 512 405 635 95 48 137 61 122 39z m636 -97 c199 -136 346 -432
310 -625 -4 -23 -10 -59 -13 -81 -4 -23 -8 -50 -10 -62 -3 -12 -8 -43 -12 -70
-5 -26 -8 -50 -9 -53 0 -3 -12 -71 -25 -152 l-24 -148 -35 -1 c-181 -3 -501
-3 -502 1 0 3 -2 14 -4 25 -11 57 -15 83 -20 115 -3 19 -23 137 -44 262 -31
186 -36 238 -30 290 19 156 88 296 208 421 46 48 133 117 148 117 2 0 30 -18
62 -39z"/>
</g>
</svg>
