<?xml version="1.0" encoding="utf-8"?>
<!-- Generator: Adobe Illustrator 22.1.0, SVG Export Plug-In . SVG Version: 6.00 Build 0)  -->
<svg version="1.1" id="Camada_1" xmlns="http://www.w3.org/2000/svg" xmlns:xlink="http://www.w3.org/1999/xlink" x="0px" y="0px"
	 viewBox="0 0 125.6 48.7" style="enable-background:new 0 0 125.6 48.7;" xml:space="preserve">
<style type="text/css">
	.st0{fill:#FFFFFF;}
</style>
<title>icon-milenio</title>
<g id="Layer_2">
	<g id="BG">
		<path class="st0" d="M28.2,48.6L28.2,48.6c0.2,0.1,0.3,0.1,0.4,0c0.3-0.2,0.7-0.5,1-0.7c1.5-0.9,2.8-2.1,3.8-3.6
			c0.4-0.7,0.8-1.4,1-2.2c0.1-0.3,0.2-0.6,0.2-0.9c0.1-0.6,0.1-1.3,0-1.9c-0.1-0.5-0.3-1-0.4-1.6c-0.2-0.7-0.4-1.4-0.8-2
			c-0.5-1-1.2-1.8-2.1-2.5c-0.4-0.3-0.9-0.6-1.4-0.8c-0.6-0.3-1.3-0.4-2-0.4c-0.5-0.1-1.1-0.1-1.6-0.1c-0.9,0.1-1.8,0.2-2.7,0.5
			c-0.7,0.2-1.4,0.4-2.1,0.6s-1.5,0.5-2.3,0.8c-0.2,0-0.4,0-0.6-0.1c-0.6-0.3-1.2-0.7-1.8-1c-0.7-0.4-1.5-0.7-2.3-0.8
			c-1-0.2-2-0.2-3-0.3c-0.4,0-0.7,0-1.1,0.1c-0.8,0.1-1.6,0.3-2.4,0.5c-0.7,0.2-1.5,0.5-2.2,0.8c-0.5,0.2-0.9,0.5-1.4,0.7
			c-0.4,0.3-0.8,0.6-1.2,0.9C2.6,35.3,2,36,1.4,36.8c-0.4,0.6-0.7,1.3-1,2C0.2,39.3,0,39.9,0,40.5c-0.1,1.3,0,2.6,0.5,3.8
			c0.3,0.7,0.6,1.4,1,2.1c0.5,0.7,1,1.3,1.5,2c0.1,0.1,0.3,0.1,0.4,0c0,0,0,0,0,0l2-1.9c0.2-0.2,0.2-0.4,0-0.6s-0.6-0.7-0.8-1
			c-0.5-0.6-0.8-1.3-1.1-2.1c-0.2-0.5-0.3-1-0.4-1.5c-0.1-0.6-0.2-1.2-0.3-1.8c0-0.8,0-1.6,0.3-2.4c0.2-0.6,0.4-1.2,0.8-1.7
			c0.8-0.8,1.8-1.4,2.8-1.6c0.5-0.1,0.9-0.2,1.4-0.3c0.5-0.1,0.9-0.1,1.4,0c0.9,0.1,1.7,0.3,2.6,0.5c0.4,0.1,0.8,0.2,1.2,0.4
			c0.7,0.4,1.4,0.9,2.1,1.3c0.4,0.2,0.7,0.7,0.6,1.1c0,3.8,0,7.7,0,11.5c0,0.1,0.1,0.2,0.1,0.3c0.1-0.1,0.2-0.1,0.3-0.2
			c0.1-0.1,0.1-0.1,0.2-0.2c0.7-0.6,1.4-1.2,2-1.8c0.1-0.1,0.2-0.3,0.2-0.5c0-3.3,0-6.7,0-10c0-0.2,0-0.3,0-0.5
			c0-0.1,0.1-0.2,0.2-0.3c0.7-0.3,1.3-0.7,2-1c0.5-0.2,1.1-0.4,1.6-0.5c1.1-0.2,2.2-0.1,3.3,0.3c0.9,0.3,1.8,0.9,2.5,1.7
			c0.9,1,1.7,2.2,2.2,3.5c0.3,0.7,0.4,1.4,0.5,2.1c0.2,1.2,0,2.5-0.5,3.7c-0.5,1.3-1.4,2.4-2.4,3.3C28.3,48.4,28.3,48.5,28.2,48.6z
			 M95.6,34l0.1,0.1c0.2,0,0.4,0,0.6,0c0.7-0.1,1,0.4,1,0.9c0,2.9,0,5.8,0,8.7c0,0.1,0,0.2-0.1,0.2c-0.1,0-0.2,0-0.2,0
			c-0.3-0.2-0.6-0.4-0.9-0.6L93.7,42c-0.8-0.5-1.5-0.9-2.3-1.3s-1.7-0.9-2.6-1.4c-0.7-0.4-1.4-0.8-2.1-1.2c-0.6-0.4-1.2-0.8-1.8-1.2
			c-0.7-0.6-1.4-1.2-2-1.8c-0.9-1.1-1.8-2.2-2.5-3.4c-0.2-0.3-0.3-0.3-0.5,0c-0.6,0.8-1.2,1.5-1.8,2.3c-0.1,0.1-0.1,0.3-0.1,0.4
			c0.1,0.2,0.2,0.4,0.3,0.5c0.2,0.2,0.3,0.5,0.3,0.8c0,3,0,6.1,0,9.2c0,1.1,0,2.2,0.1,3.2c0,0.3,0.2,0.6,0.6,0.6c0.1,0,0.1,0,0.2,0
			c0.3,0,0.5-0.2,0.7-0.3c0.7-0.6,1.3-1.3,1.9-1.9c0.2-0.2,0.1-0.3-0.1-0.4c-0.2,0-0.4-0.1-0.7-0.2c-0.5-0.2-0.8-0.7-0.8-1.3
			c0-0.3,0-0.5,0-0.8c0-2,0-4,0-6.1c0-0.1,0-0.2,0.1-0.2c0.1,0,0.2,0,0.2,0.1c0.4,0.3,0.8,0.7,1.3,1c0.8,0.6,1.5,1.1,2.3,1.7
			c0.5,0.3,1,0.7,1.5,1s1.3,0.7,2,1.1c0.3,0.2,0.7,0.4,1,0.5c0.6,0.2,1.1,0.5,1.7,0.8c1,0.6,1.9,1.3,2.8,1.9
			c0.5,0.3,0.9,0.7,1.3,1.1c0.6,0.6,1.2,1.2,1.8,1.8c0.2,0.2,0.3,0.2,0.4,0c0.3-0.5,0.7-1,1-1.5s0.8-1.3,1.2-2
			c0-0.1,0.1-0.2,0.1-0.3c0-3.8,0-7.6,0-11.4c0-0.4-0.1-0.9-0.2-1.3c0-0.3-0.3-0.5-0.6-0.5c-0.1,0-0.2,0.1-0.3,0.2
			c-0.5,0.4-1,0.8-1.5,1.2C96.2,33.2,95.9,33.6,95.6,34z M66.7,39.5L66.7,39.5c1.6,0,3.2,0,4.8,0c0.9,0.1,1.7,0,2.6-0.1
			c0.5-0.2,1.1-0.4,1.6-0.6c0.5-0.3,0.9-0.5,1.3-0.8c0.1,0,0.1-0.2,0.2-0.2s-0.2-0.1-0.3-0.1c-0.3,0.1-0.6,0.1-0.9,0.2
			c-0.8,0.2-1.7,0.3-2.5,0.2c-0.6,0-1.1,0-1.7,0s-0.8,0-1.3,0l-8.1,0h-2.5c-0.2,0-0.3,0-0.3-0.2c0.1-0.5,0.2-1,0.3-1.5
			c0.2-0.4,0.3-0.7,0.6-1c0.5-0.9,1.4-1.5,2.4-1.7c0.4-0.1,0.9-0.2,1.3-0.3c0.6,0,1.3,0,1.9,0c0.6,0.1,1.2,0.1,1.8,0.3
			c0.8,0.2,1.6,0.4,2.4,0.6c0.6,0.2,1.2,0.4,1.8,0.6c0.1,0,0.3,0,0.3-0.1c0.5-0.5,1.1-1,1.6-1.5c0.2-0.2,0.2-0.3-0.1-0.4
			c-0.7-0.2-1.3-0.4-2-0.6c-1.2-0.3-2.4-0.4-3.7-0.5c-0.5,0-0.9,0-1.4,0.1c-1.1,0-2.3,0.3-3.3,0.7c-1,0.4-1.9,0.9-2.8,1.5
			c-1.3,0.9-2.4,2.2-3.1,3.7c-0.2,0.5-0.4,1.1-0.6,1.6c-0.4,1.2-0.3,2.6,0.3,3.8c0.5,0.9,1.1,1.7,1.8,2.3c0.1,0.1,0.3,0.2,0.4,0.3
			c0.5,0.5,1.1,0.9,1.7,1.4c0.9,0.6,1.8,1.1,2.9,1.3c0.6,0.1,1.2,0.2,1.8,0.3c0.6,0,1.1-0.1,1.7-0.2c0.3,0,0.7-0.1,1-0.2
			c0.7-0.3,1.4-0.6,2.1-1c0.5-0.3,1-0.7,1.5-1.1c0,0,0-0.1,0.1-0.2s-0.1,0-0.2,0c-0.3,0.1-0.7,0.3-1,0.4c-0.5,0.2-1,0.3-1.6,0.4
			c-1.4,0.1-2.7,0-4-0.5c-0.8-0.3-1.6-0.7-2.4-1.2c-0.8-0.6-1.6-1.3-2.3-2.1c-0.7-0.7-1.1-1.6-1.3-2.5c-0.1-0.6-0.1-0.7,0.6-0.7h6.5
			L66.7,39.5z M54,48.7c0.2,0,0.3,0,0.4-0.1c0.6-0.4,1.2-0.8,1.8-1.3c0.4-0.3,0.8-0.7,1.2-1c0.1-0.1,0.2-0.3,0.2-0.4
			c-0.1-0.1-0.3-0.2-0.4-0.2c-0.7,0-1.4,0-2,0h-7.8c-0.2,0-0.3-0.1-0.3-0.3s0-0.2,0-0.3c0-4.1,0-8.2,0-12.3c0-0.1,0-0.3,0-0.5
			c-0.1-0.3-0.1-0.7-0.5-0.8c-0.3-0.1-0.6-0.1-0.9,0c-0.6,0.2-1.1,0.5-1.6,0.8c-0.6,0.4-1.1,0.8-1.7,1.2c-0.2,0.2-0.2,0.3,0.1,0.4
			c0.4,0.1,0.8,0.4,1.2,0.6c0.4,0.4,0.6,1,0.6,1.7c0,3.4,0,6.8,0,10.1c0,0.2-0.1,0.5-0.2,0.6c-0.1,0.1-0.1,0.2-0.1,0.3
			c0.1,0.1,0.2,0.1,0.3,0.1h8.7c0.3,0,0.6,0,0.9,0.1c0.4,0.1,0.5,0.3,0.3,0.7C54.1,48.5,54,48.6,54,48.7z M40,39.3L40,39.3
			c0-1.6,0-3.2,0-4.8c0-0.7,0-1.4,0-2.1s-0.6-1.1-1-0.9c-0.5,0.2-0.9,0.5-1.3,0.8c-0.8,0.6-1.6,1.4-2.2,2.2
			c-0.1,0.1-0.2,0.3-0.1,0.3s0.2,0.1,0.3,0.2c0.2,0.1,0.5,0.1,0.7,0.2c0.4,0.2,0.7,0.6,0.7,1c0,0.6,0,1.2,0,1.8c0,3.4,0,6.8,0,10.2
			c0,0.1,0,0.3,0.1,0.4c0.1,0.2,0.2,0.2,0.3,0.1c0.8-0.6,1.5-1.3,2.2-1.9c0.2-0.2,0.3-0.4,0.3-0.7C40.1,43.8,40.1,41.6,40,39.3
			L40,39.3z M106.1,39.1c0-2.2,0-4.3,0-6.5c0-0.2,0-0.4,0-0.6c0-0.4-0.3-0.7-0.7-0.7c-0.1,0-0.2,0-0.4,0.1c-0.5,0.3-1,0.6-1.4,1
			c-0.8,0.6-1.5,1.3-2.1,2.1c-0.1,0.2-0.1,0.3,0.1,0.3c0.2,0,0.5,0.1,0.7,0.2c0.3,0.2,0.7,0.3,0.8,0.7c0.1,0.4,0.1,0.8,0.2,1.2
			c0,3.7,0,7.4,0,11.1c0,0.1,0.1,0.3,0.1,0.4c0.1,0,0.3-0.1,0.4-0.2c0.7-0.6,1.4-1.2,2-1.7c0.2-0.1,0.3-0.4,0.3-0.6
			C106.2,43.7,106.2,41.4,106.1,39.1L106.1,39.1z"/>
		<path class="st0" d="M28.2,48.6c0.1-0.1,0.1-0.2,0.2-0.3c1-0.9,1.8-2,2.4-3.3c0.5-1.2,0.6-2.4,0.5-3.7c-0.1-0.7-0.3-1.4-0.5-2.1
			c-0.5-1.3-1.2-2.5-2.2-3.5c-0.7-0.7-1.5-1.3-2.5-1.7c-1.1-0.3-2.2-0.4-3.3-0.3c-0.6,0.1-1.1,0.2-1.6,0.5c-0.7,0.3-1.4,0.6-2,1
			c-0.1,0.1-0.1,0.2-0.2,0.3c0,0.2,0,0.3,0,0.5c0,3.3,0,6.7,0,10c0,0.2-0.1,0.4-0.2,0.5c-0.7,0.6-1.3,1.2-2,1.8
			c-0.1,0.1-0.1,0.2-0.2,0.2c-0.1,0.1-0.2,0.1-0.3,0.2c0-0.1-0.1-0.2-0.1-0.3c0-3.8,0-7.7,0-11.5c0.1-0.5-0.2-0.9-0.6-1.1
			c-0.7-0.4-1.4-0.9-2.2-1.3c-0.4-0.2-0.8-0.4-1.2-0.5c-0.9-0.2-1.7-0.4-2.6-0.5c-0.5,0-0.9,0-1.4,0c-0.5,0-0.9,0.1-1.4,0.3
			c-1.1,0.3-2.1,0.8-2.8,1.6c-0.4,0.5-0.7,1.1-0.8,1.7c-0.2,0.8-0.3,1.6-0.3,2.4c0.1,0.6,0.2,1.2,0.3,1.8c0.1,0.5,0.2,1,0.4,1.5
			c0.3,0.8,0.6,1.5,1.1,2.1c0.3,0.3,0.6,0.7,0.8,1s0.2,0.4,0,0.6l-2,1.9c-0.1,0.1-0.3,0.1-0.4,0c0,0,0,0,0,0c-0.5-0.7-1.1-1.3-1.5-2
			c-0.4-0.7-0.8-1.4-1.1-2.1C0,43.1-0.1,41.8,0,40.5c0-0.6,0.2-1.2,0.4-1.7c0.3-0.7,0.6-1.4,1-2c0.5-0.8,1.1-1.5,1.9-2.1
			c0.4-0.3,0.8-0.6,1.2-0.9c0.4-0.3,0.9-0.5,1.4-0.7c0.7-0.3,1.4-0.6,2.2-0.9c0.8-0.2,1.6-0.3,2.4-0.5c0.4-0.1,0.7-0.1,1.1-0.1
			c1,0.1,2,0.2,3,0.3c0.8,0.1,1.6,0.4,2.3,0.8c0.6,0.3,1.2,0.7,1.8,1C18.8,34,19,34,19.2,34c0.8-0.2,1.5-0.5,2.3-0.8
			s1.4-0.4,2.1-0.6c0.9-0.2,1.8-0.4,2.7-0.5c0.5,0,1.1,0,1.6,0.1c0.7,0,1.4,0.2,2,0.4c0.5,0.2,0.9,0.5,1.4,0.8
			c0.9,0.7,1.6,1.5,2.1,2.5c0.4,0.6,0.6,1.3,0.8,2c0.1,0.5,0.4,1,0.4,1.6c0.1,0.6,0.1,1.3,0,1.9c0,0.3-0.1,0.6-0.2,0.9
			c-0.2,0.8-0.6,1.5-1,2.2c-1,1.5-2.2,2.7-3.8,3.6c-0.4,0.2-0.7,0.5-1,0.7c-0.1,0-0.2,0.1-0.3,0L28.2,48.6z"/>
		<path class="st0" d="M95.6,34c0.3-0.4,0.6-0.8,0.9-1.2c0.5-0.4,1-0.9,1.5-1.2c0.2-0.2,0.6-0.2,0.8,0c0.1,0.1,0.1,0.2,0.2,0.3
			c0.1,0.4,0.2,0.8,0.2,1.3c0,3.8,0,7.6,0,11.4c0,0.1,0,0.2-0.1,0.3c-0.4,0.7-0.8,1.3-1.2,2s-0.7,1-1,1.5c-0.1,0.2-0.2,0.2-0.4,0
			c-0.6-0.6-1.2-1.2-1.8-1.8c-0.4-0.4-0.9-0.8-1.3-1.1c-0.9-0.7-1.8-1.3-2.8-1.9c-0.5-0.3-1.1-0.6-1.7-0.8c-0.3-0.2-0.7-0.3-1-0.5
			c-0.7-0.4-1.3-0.7-2-1.1s-1-0.6-1.5-1c-0.8-0.5-1.5-1.1-2.3-1.7c-0.4-0.3-0.8-0.7-1.3-1c-0.1-0.1-0.2-0.1-0.2-0.1
			c-0.1,0-0.1,0.1-0.1,0.2c0,2,0,4,0,6.1c0,0.3,0,0.5,0,0.8c0,0.5,0.3,1,0.8,1.3c0.2,0.1,0.4,0.2,0.7,0.2c0.2,0.1,0.3,0.2,0.1,0.4
			c-0.6,0.6-1.3,1.3-1.9,1.9c-0.2,0.2-0.4,0.3-0.7,0.3c-0.3,0.1-0.6-0.1-0.7-0.5c0-0.1,0-0.1,0-0.2c0-1.1-0.1-2.2-0.1-3.2
			c0-3,0-6.1,0-9.2c0-0.3-0.1-0.6-0.3-0.8c-0.1-0.1-0.3-0.3-0.3-0.5c0-0.1,0-0.3,0.1-0.4c0.6-0.8,1.2-1.5,1.8-2.3
			c0.3-0.3,0.3-0.3,0.5,0c0.7,1.3,1.5,2.5,2.5,3.5c0.6,0.7,1.3,1.3,2,1.8c0.6,0.5,1.2,0.9,1.8,1.2c0.7,0.4,1.4,0.8,2.1,1.2
			c0.9,0.5,1.8,0.9,2.6,1.4s1.5,0.9,2.3,1.3l2.4,1.3c0.3,0.2,0.6,0.4,0.9,0.6c0.1,0,0.2,0.1,0.2,0c0,0,0.1-0.1,0.1-0.2
			c0-2.9,0-5.8,0-8.7c0-0.6-0.3-1-1-0.9c-0.2,0-0.4,0-0.6,0L95.6,34z"/>
		<path class="st0" d="M66.7,39.5h-6.5c-0.6,0-0.7,0.1-0.6,0.7c0.2,1,0.6,1.9,1.3,2.5c0.7,0.8,1.5,1.5,2.3,2.1
			c0.8,0.5,1.6,0.9,2.4,1.2c1.3,0.4,2.6,0.6,4,0.5c0.5-0.1,1.1-0.2,1.6-0.4c0.3-0.1,0.7-0.3,1-0.4c0.1,0,0.1,0,0.2,0s0,0.2-0.1,0.2
			c-0.4,0.4-0.9,0.8-1.4,1.2c-0.7,0.4-1.4,0.7-2.1,1c-0.3,0.1-0.7,0.2-1,0.2c-0.6,0.1-1.1,0.1-1.7,0.2c-0.6-0.1-1.2-0.2-1.8-0.3
			c-1-0.2-2-0.7-2.9-1.3c-0.6-0.4-1.2-0.9-1.7-1.4c-0.2-0.1-0.3-0.2-0.4-0.3c-0.7-0.7-1.3-1.5-1.8-2.3c-0.5-1.2-0.6-2.5-0.3-3.8
			c0.1-0.6,0.3-1.1,0.6-1.6c0.7-1.5,1.8-2.7,3.1-3.7c0.8-0.6,1.8-1.1,2.8-1.5c1.1-0.4,2.2-0.6,3.3-0.6c0.5-0.1,0.9-0.1,1.4-0.1
			c1.2,0,2.4,0.2,3.6,0.5c0.7,0.2,1.3,0.4,2,0.6c0.2,0.1,0.2,0.2,0.1,0.4c-0.5,0.5-1.1,1-1.6,1.5c-0.1,0.1-0.2,0.1-0.3,0.1
			c-0.6-0.2-1.2-0.5-1.8-0.6c-0.8-0.2-1.6-0.4-2.4-0.6c-0.6-0.1-1.2-0.2-1.8-0.3c-0.6,0-1.3,0-1.9,0c-0.4,0-0.9,0.1-1.3,0.3
			c-1,0.2-1.9,0.8-2.4,1.7c-0.2,0.3-0.4,0.6-0.6,1c-0.1,0.5-0.2,1-0.3,1.5c0,0.2,0.1,0.2,0.3,0.2h2.5l8.1,0c0.4,0,0.8,0,1.3,0
			s1.1,0.1,1.7,0c0.9,0.1,1.7,0.1,2.6-0.1c0.3-0.1,0.6-0.2,0.9-0.2c0.1,0,0.2,0,0.3,0.1s-0.1,0.2-0.2,0.2c-0.4,0.3-0.9,0.6-1.3,0.8
			c-0.5,0.2-1.1,0.5-1.6,0.6c-0.9,0.2-1.7,0.2-2.6,0.1C69.9,39.5,68.3,39.5,66.7,39.5L66.7,39.5z"/>
		<path class="st0" d="M54,48.7c0-0.1,0.1-0.2,0.1-0.2c0.2-0.4,0.1-0.6-0.3-0.7c-0.3-0.1-0.6-0.1-0.9-0.1h-8.7
			c-0.1,0-0.2-0.1-0.3-0.1c0-0.1,0.1-0.2,0.2-0.3c0.2-0.2,0.2-0.4,0.2-0.6c0-3.4,0-6.8,0-10.1c0.1-0.6-0.1-1.2-0.6-1.7
			c-0.4-0.3-0.8-0.5-1.2-0.6c-0.2-0.1-0.3-0.2-0.1-0.4c0.5-0.4,1.1-0.9,1.7-1.2c0.5-0.3,1.1-0.6,1.6-0.8c0.3-0.1,0.6-0.1,0.9,0
			c0.4,0.1,0.4,0.5,0.5,0.8c0,0.1,0,0.3,0,0.5c0,4.1,0,8.2,0,12.3c0,0.1,0,0.2,0,0.3s0.1,0.3,0.3,0.3h7.8c0.7,0,1.4,0,2,0
			c0.2,0,0.3,0.1,0.4,0.2c0,0,0,0.3-0.2,0.4c-0.4,0.3-0.8,0.7-1.2,1c-0.6,0.4-1.2,0.8-1.8,1.3C54.3,48.7,54.2,48.7,54,48.7z"/>
		<path class="st0" d="M40.1,39.3c0,2.2,0,4.5,0,6.8c0,0.3-0.1,0.5-0.3,0.7c-0.8,0.6-1.5,1.3-2.2,1.9c-0.1,0.1-0.3,0.1-0.3-0.1
			c-0.1-0.1-0.1-0.3-0.1-0.4c0-3.4,0-6.8,0-10.1c0-0.6,0-1.2,0-1.8c0-0.4-0.3-0.8-0.7-1c-0.2-0.1-0.5-0.2-0.7-0.2
			c-0.1,0-0.3-0.1-0.3-0.2s0.1-0.2,0.1-0.3c0.6-0.8,1.4-1.5,2.2-2.2c0.4-0.3,0.8-0.6,1.3-0.8c0.5-0.2,1,0.2,1,0.9c0,0.6,0,1.4,0,2.1
			C40,36.1,40,37.7,40.1,39.3L40.1,39.3z"/>
		<path class="st0" d="M106.2,39.1c0,2.3,0,4.6,0,6.9c0,0.2-0.1,0.5-0.3,0.6c-0.7,0.6-1.4,1.2-2,1.7c-0.1,0.1-0.3,0.1-0.4,0.2
			c-0.1-0.1-0.1-0.3-0.1-0.4c0-3.7,0-7.4,0-11.2c0-0.4-0.1-0.8-0.2-1.2c-0.1-0.4-0.5-0.5-0.8-0.7c-0.2-0.1-0.4-0.1-0.7-0.2
			c-0.2,0-0.3-0.2-0.1-0.3c0.6-0.8,1.3-1.5,2.1-2.1c0.4-0.4,0.9-0.7,1.4-1c0.3-0.2,0.8-0.1,1,0.3c0.1,0.1,0.1,0.2,0.1,0.4
			c0,0.2,0,0.4,0,0.6C106.2,34.8,106.2,37,106.2,39.1z"/>
		<path class="st0" d="M125.4,36.3c0-0.2-0.1-0.4-0.1-0.5c-0.3-0.8-0.7-1.6-1.3-2.3c-0.4-0.4-0.8-0.8-1.3-1.1
			c-0.5-0.3-1.1-0.6-1.7-0.8c-0.7-0.2-1.3-0.3-2-0.3c-1-0.1-2,0.1-3,0.4c-0.8,0.3-1.6,0.5-2.3,0.8c-0.9,0.4-1.7,0.9-2.4,1.5
			c-0.7,0.5-1.3,1.2-1.8,1.9c-0.4,0.6-0.8,1.3-1.1,2c-0.3,1-0.5,2-0.6,3c0,0.2,0.1,0.4,0.1,0.6c0,0.6,0.1,1.2,0.3,1.7
			c0.1,0.1,0.1,0.3,0.2,0.4c0.2,0.7,0.6,1.4,1.1,2c0.4,0.5,0.8,1,1.3,1.3c0.3,0.3,0.7,0.5,1.1,0.6c0.4,0.2,0.8,0.2,1.2,0.4
			c0.6,0.2,1.2,0.2,1.8,0.2c0.6,0,1.2-0.1,1.8-0.2c0.8-0.1,1.7-0.4,2.4-0.7c1-0.4,2-1,2.9-1.7c0.9-0.8,1.7-1.7,2.3-2.8
			c0.2-0.5,0.4-0.9,0.6-1.4c0.4-0.8,0.6-1.6,0.6-2.5c0-0.2,0-0.4,0-0.6s0-0.7,0-1C125.6,37,125.5,36.6,125.4,36.3z M122.9,42.1
			c-0.1,0.7-0.3,1.4-0.7,2.1c-0.4,0.7-1,1.3-1.7,1.6c-0.4,0.2-0.9,0.3-1.3,0.5c-0.3,0.1-0.7,0.1-1,0.1c-0.6,0-1.3-0.1-1.9-0.3
			c-0.8-0.2-1.5-0.6-2.1-1c-0.4-0.2-0.7-0.5-1.1-0.9c-0.4-0.3-0.7-0.7-1-1.1c-0.3-0.4-0.5-0.9-0.7-1.3c-0.4-1.1-0.6-2.2-0.4-3.4
			c0-0.4,0-0.7,0.1-1.1c0.1-0.6,0.2-1.1,0.5-1.6c0.1-0.3,0.3-0.6,0.4-0.9c0.4-0.6,0.9-1.1,1.6-1.4c0.8-0.4,1.7-0.5,2.6-0.4
			c0.9,0.1,1.8,0.3,2.6,0.7c0.6,0.3,1.1,0.6,1.5,1.1c0.8,0.7,1.4,1.6,1.8,2.6c0.3,0.6,0.5,1.2,0.6,1.8c0.1,0.6,0.3,1.3,0.3,1.9
			C123,41.3,123,41.7,122.9,42.1L122.9,42.1z"/>
		<path class="st0" d="M56.1,7.6c0.3-0.2,0.3-0.5,0.2-0.8c-0.1-0.1-0.2-0.2-0.3-0.2c-5.1-1.5-10-3.7-14.6-6.5C41.2,0,41,0,40.8,0.1
			l-1.1,1.1c-0.2,0.1-0.2,0.4,0,0.6c0,0,0,0,0,0C41.8,3.6,47,5.7,51.4,7c0,0-8,5.2-9.5,8.9c-1.7,4.1,0,6.6,0.7,7.3
			c0.1,0.2,0.3,0.2,0.5,0.3h3C47.8,23.3,41.4,17.4,56.1,7.6z"/>
		<path class="st0" d="M85.9,1.2l-1.1-1.1C84.7,0,84.4,0,84.3,0.1c-2,1.2-4,2.3-6.1,3.2C75,4.8,71.5,5.5,68,5.5
			c2.6-0.9,5.1-2.2,7.3-3.7c0.2-0.1,0.2-0.4,0-0.6c0,0,0,0,0,0l-1.1-1.1C74.1,0,73.9,0,73.7,0.1c-3.3,2-6.7,3.7-10.3,5
			c-1.7-0.4-3.4-0.9-5-1.6c-0.6-0.3-1.3-0.6-1.9-0.9l-0.4-0.2l0,0c-1.5-0.7-2.9-1.5-4.2-2.3C51.8,0,51.6,0,51.5,0.1l-1.2,1.1
			c-0.2,0.1-0.2,0.4,0,0.6c0,0,0,0,0,0C52.4,3.5,57.6,5.7,62,7c0,0-8,5.2-9.5,8.9c-1.7,4.1,0,6.6,0.7,7.3c0.1,0.2,0.3,0.2,0.5,0.3h3
			c1.4-0.3-2.8-4.4,4.3-11.5c0.6-0.5,1.3-1,2.1-1.4c9.3,8,4.4,12.6,5.9,12.9h3c0.2,0,0.4-0.1,0.5-0.3c0.7-0.7,2.4-3.2,0.7-7.3
			c-0.9-2.2-4.1-4.9-6.5-6.8c0.5-0.1,1-0.2,1.5-0.3c0.1,0,0.2,0,0.3,0c2,0.3,3.9,1.1,5.6,2.2c8.7,7.8,4,12.3,5.5,12.6h3
			c0.2,0,0.4-0.1,0.5-0.3c0.7-0.7,2.4-3.2,0.7-7.3c-1.6-3.8-9.6-9-9.6-9c4.4-1.3,9.6-3.5,11.7-5.2C86,1.7,86.1,1.4,85.9,1.2
			C86,1.2,85.9,1.2,85.9,1.2z"/>
	</g>
</g>
</svg>
