<svg xmlns="http://www.w3.org/2000/svg" viewBox="0 0 177.14 23.58"><defs><style>.cls-1{fill:#10377a;}</style></defs><title>logo-mileino-v</title><g id="Layer_2" data-name="Layer 2"><g id="Layer_1-2" data-name="Layer 1"><g id="BG"><path class="cls-1" d="M79.76,20.41l.06.09a1,1,0,0,0,.31-.05c.34-.21.67-.46,1-.67a11.35,11.35,0,0,0,3.79-3.6,7.6,7.6,0,0,0,1-2.19,4.88,4.88,0,0,0,.21-.9,10.16,10.16,0,0,0,0-1.91c-.06-.53-.32-1-.42-1.56a6.57,6.57,0,0,0-.81-2,7.24,7.24,0,0,0-2.09-2.48,6,6,0,0,0-1.37-.79,5.28,5.28,0,0,0-2-.43,9.67,9.67,0,0,0-1.62-.07,13.65,13.65,0,0,0-2.68.45c-.69.24-1.42.39-2.12.62s-1.54.55-2.31.8a.84.84,0,0,1-.56-.08c-.62-.31-1.22-.66-1.83-1A7.1,7.1,0,0,0,66,3.83c-1-.17-2-.25-3-.33a3.91,3.91,0,0,0-1.07.09,20.38,20.38,0,0,0-2.4.48,16.27,16.27,0,0,0-2.16.83A9.39,9.39,0,0,0,56,5.63a11.92,11.92,0,0,0-1.17.88A9.19,9.19,0,0,0,53,8.57a12,12,0,0,0-1,2,5.67,5.67,0,0,0-.44,1.78A8,8,0,0,0,52,16.1a12.38,12.38,0,0,0,1,2.09c.48.69,1,1.33,1.54,2a.28.28,0,0,0,.38,0l0,0,2.05-1.9c.21-.19.18-.36,0-.56s-.57-.67-.85-1a8.3,8.3,0,0,1-1.1-2.08,10.83,10.83,0,0,1-.43-1.55c-.12-.61-.22-1.22-.28-1.83a7.26,7.26,0,0,1,.27-2.37,4.27,4.27,0,0,1,.85-1.67,5.79,5.79,0,0,1,2.84-1.61,7.45,7.45,0,0,1,1.38-.26,5.32,5.32,0,0,1,1.38-.05c.86.11,1.71.29,2.56.48a4,4,0,0,1,1.16.43c.73.4,1.42.88,2.15,1.28a1.08,1.08,0,0,1,.62,1.12V20.16a2,2,0,0,0,.1.32l.28-.17a2.18,2.18,0,0,0,.22-.21c.67-.6,1.35-1.19,2-1.81a.71.71,0,0,0,.23-.48v-10a3.84,3.84,0,0,1,0-.48.42.42,0,0,1,.16-.26c.67-.33,1.33-.68,2-1a6.08,6.08,0,0,1,1.65-.47,7.27,7.27,0,0,1,3.31.29,6.25,6.25,0,0,1,2.49,1.65,10.38,10.38,0,0,1,2.17,3.51,8,8,0,0,1,.52,2.11,7.14,7.14,0,0,1-.47,3.68,9.39,9.39,0,0,1-2.37,3.28A2.59,2.59,0,0,0,79.76,20.41ZM147.14,5.8l.06.11h.55a.84.84,0,0,1,1,.94v8.68c0,.07,0,.2-.06.21a.37.37,0,0,1-.23-.05c-.31-.19-.6-.4-.92-.58l-2.33-1.31c-.76-.45-1.51-.92-2.28-1.35s-1.74-.9-2.61-1.37c-.71-.38-1.41-.78-2.08-1.21a17.2,17.2,0,0,1-1.78-1.25,25,25,0,0,1-2-1.85A20.89,20.89,0,0,1,132,3.34c-.2-.3-.27-.3-.53,0-.58.76-1.18,1.51-1.75,2.28a.43.43,0,0,0-.06.38,1.33,1.33,0,0,0,.33.49,1,1,0,0,1,.3.82v9.16c0,1.07,0,2.15.07,3.22a.59.59,0,0,0,.55.64h.18a1.71,1.71,0,0,0,.7-.32c.66-.61,1.29-1.26,1.92-1.89.17-.18.13-.31-.11-.39a2.36,2.36,0,0,1-.65-.21,1.47,1.47,0,0,1-.79-1.26V9.41c0-.08,0-.2.09-.22a.25.25,0,0,1,.23.07c.44.33.85.67,1.28,1,.75.57,1.49,1.13,2.27,1.68.48.34,1,.67,1.47,1s1.32.73,2,1.09l1,.52a16.09,16.09,0,0,1,1.68.8c1,.6,1.87,1.27,2.8,1.93a12.72,12.72,0,0,1,1.33,1.12c.6.57,1.18,1.17,1.77,1.76.16.16.27.16.41,0,.34-.49.71-1,1-1.46s.81-1.31,1.2-2a.87.87,0,0,0,.07-.31V5a5.18,5.18,0,0,0-.2-1.3.53.53,0,0,0-.61-.46.58.58,0,0,0-.31.16,11.68,11.68,0,0,0-1.51,1.22A10.89,10.89,0,0,0,147.14,5.8Zm-28.93,5.49H123a8.4,8.4,0,0,0,2.6-.14,14,14,0,0,0,1.6-.63,12.75,12.75,0,0,0,1.32-.83c.07,0,.11-.15.16-.23s-.18-.09-.26-.08c-.3.06-.6.14-.9.23a9.66,9.66,0,0,1-2.52.22h-2.93l-8.13-.05h-2.53c-.16,0-.33,0-.29-.24A12.39,12.39,0,0,1,111.43,8,6.94,6.94,0,0,1,112,7a3.86,3.86,0,0,1,2.41-1.69,6,6,0,0,1,1.31-.27,12.31,12.31,0,0,1,1.92,0,12.44,12.44,0,0,1,1.83.28c.82.17,1.63.36,2.44.59.61.17,1.2.44,1.81.64a.48.48,0,0,0,.35-.08c.54-.5,1.07-1,1.59-1.54.17-.16.17-.29-.07-.37-.66-.21-1.33-.44-2-.64a17.91,17.91,0,0,0-3.65-.49,13.37,13.37,0,0,0-1.4.1,9.89,9.89,0,0,0-3.34.71,11.31,11.31,0,0,0-2.76,1.48,9.84,9.84,0,0,0-3.09,3.65,11.18,11.18,0,0,0-.56,1.63,5.56,5.56,0,0,0,.26,3.75,8.66,8.66,0,0,0,1.8,2.33c.14.11.28.22.43.32.54.48,1.11.94,1.69,1.36a8.43,8.43,0,0,0,2.86,1.3,15.52,15.52,0,0,0,1.79.29,10.74,10.74,0,0,0,1.7-.15,4.15,4.15,0,0,0,1-.22,19.72,19.72,0,0,0,2.13-1,13.64,13.64,0,0,0,1.47-1.13.35.35,0,0,1,.07-.21c.07-.07-.14-.05-.19,0l-1,.4a8.27,8.27,0,0,1-1.57.43,9.37,9.37,0,0,1-4-.45,12.9,12.9,0,0,1-2.4-1.22,14.06,14.06,0,0,1-2.3-2.06,4.86,4.86,0,0,1-1.29-2.55c-.11-.64-.06-.71.58-.72h6.48ZM105.52,20.5a.62.62,0,0,0,.36-.06c.61-.41,1.22-.82,1.81-1.26.43-.32.83-.66,1.22-1,.09-.08.19-.32.15-.37a.62.62,0,0,0-.41-.2H98.88c-.19,0-.29-.07-.3-.26a2.85,2.85,0,0,1,0-.3V4.78a1.7,1.7,0,0,0,0-.45c-.07-.33-.11-.73-.48-.82a1.47,1.47,0,0,0-.88,0,10.74,10.74,0,0,0-1.61.84c-.59.37-1.14.8-1.7,1.23-.21.16-.16.26.08.37a4.2,4.2,0,0,1,1.21.62,2,2,0,0,1,.56,1.65V18.35a.88.88,0,0,1-.23.63,1.26,1.26,0,0,0-.13.34,1.5,1.5,0,0,0,.34.11h8.71a4.06,4.06,0,0,1,.92.11c.41.08.5.31.3.68Zm-14-9.39h0V4.18c0-.71-.57-1.1-1-.86a8.55,8.55,0,0,0-1.33.85A11.89,11.89,0,0,0,87,6.34c-.07.09-.16.27-.13.33a.81.81,0,0,0,.35.18,3.35,3.35,0,0,1,.7.22,1,1,0,0,1,.66,1V20a1.44,1.44,0,0,0,.09.4c.06.2.2.17.32.07.75-.63,1.48-1.28,2.23-1.91a.79.79,0,0,0,.32-.66c.06-2.26.07-4.51.07-6.76Zm66.11-.19q0-3.27,0-6.51V3.84a.7.7,0,0,0-.71-.71.68.68,0,0,0-.36.1,6,6,0,0,0-1.4,1,12.65,12.65,0,0,0-2.07,2.13c-.14.2-.11.3.12.35a2.54,2.54,0,0,1,.67.17c.31.15.68.28.77.66a5.13,5.13,0,0,1,.15,1.24V19.93a3,3,0,0,0,.12.4,1.68,1.68,0,0,0,.39-.16c.69-.57,1.36-1.16,2-1.72a.7.7,0,0,0,.29-.62c.1-2.32.11-4.61.11-6.9Z"/><path class="cls-1" d="M79.76,20.41a1.79,1.79,0,0,1,.2-.26,9.39,9.39,0,0,0,2.37-3.28,7.14,7.14,0,0,0,.47-3.68,8,8,0,0,0-.52-2.11,10.38,10.38,0,0,0-2.17-3.51,6.25,6.25,0,0,0-2.49-1.65,7.27,7.27,0,0,0-3.31-.29,6.08,6.08,0,0,0-1.65.47,14.36,14.36,0,0,0-2,1,.42.42,0,0,0-.16.26,3.84,3.84,0,0,0,0,.48v10a.71.71,0,0,1-.23.48c-.66.62-1.34,1.21-2,1.81a2.18,2.18,0,0,1-.22.21l-.28.17a2,2,0,0,1-.1-.32V8.65a1.08,1.08,0,0,0-.62-1.12c-.73-.4-1.42-.88-2.15-1.28a4.36,4.36,0,0,0-1.22-.45c-.85-.19-1.7-.37-2.56-.48a5.32,5.32,0,0,0-1.38,0,7.45,7.45,0,0,0-1.38.26,5.82,5.82,0,0,0-2.84,1.6,4.24,4.24,0,0,0-.84,1.7,7.26,7.26,0,0,0-.27,2.37c.06.61.16,1.22.28,1.83a10.83,10.83,0,0,0,.43,1.55,8.51,8.51,0,0,0,1.09,2.12c.28.34.55.69.85,1s.22.37,0,.56l-2,1.86a.27.27,0,0,1-.37,0l0,0c-.52-.66-1.06-1.31-1.54-2A12,12,0,0,1,52,16.1a8,8,0,0,1-.48-3.75,5.76,5.76,0,0,1,.42-1.74,12,12,0,0,1,1-2,9.19,9.19,0,0,1,1.87-2.06A11.92,11.92,0,0,1,56,5.67a9.39,9.39,0,0,1,1.36-.73,17.68,17.68,0,0,1,2.18-.87,19.55,19.55,0,0,1,2.38-.45A3.91,3.91,0,0,1,63,3.53c1,.08,2,.16,3,.33a7.1,7.1,0,0,1,2.33.81c.61.34,1.21.68,1.83,1a.84.84,0,0,0,.56.08C71.47,5.5,72.23,5.2,73,5s1.42-.38,2.12-.62a13.65,13.65,0,0,1,2.68-.45A9.67,9.67,0,0,1,79.42,4a5.28,5.28,0,0,1,2,.43,6,6,0,0,1,1.37.79,7.24,7.24,0,0,1,2.09,2.48,6.57,6.57,0,0,1,.81,2,13.25,13.25,0,0,1,.42,1.56,10.16,10.16,0,0,1,0,1.91,4.88,4.88,0,0,1-.21.9,7.6,7.6,0,0,1-1,2.19,11.23,11.23,0,0,1-3.76,3.59c-.35.21-.67.46-1,.67a1,1,0,0,1-.31.05Z"/><path class="cls-1" d="M147.14,5.8a10.5,10.5,0,0,1,.94-1.23,11.13,11.13,0,0,1,1.52-1.22.53.53,0,0,1,.76,0,.51.51,0,0,1,.15.31,5.4,5.4,0,0,1,.17,1.27c0,3.8,0,7.59,0,11.39a.87.87,0,0,1-.07.31c-.39.66-.78,1.32-1.2,2s-.7,1-1,1.46c-.13.19-.25.2-.41,0-.58-.59-1.17-1.19-1.77-1.76a12.72,12.72,0,0,0-1.33-1.12c-.92-.67-1.84-1.33-2.8-1.93a16.09,16.09,0,0,0-1.68-.8c-.35-.17-.7-.34-1-.52-.67-.36-1.34-.71-2-1.09a10.81,10.81,0,0,1-1.48-1c-.76-.55-1.51-1.11-2.26-1.68l-1.28-1a.25.25,0,0,0-.23-.07c-.06,0-.09.14-.09.22v6.84a1.47,1.47,0,0,0,.79,1.26,2.36,2.36,0,0,0,.65.21c.24.07.29.21.11.39-.64.64-1.26,1.28-1.92,1.89a1.71,1.71,0,0,1-.7.32.6.6,0,0,1-.72-.46.33.33,0,0,1,0-.17c0-1.07-.07-2.15-.07-3.22V7.23a1,1,0,0,0-.3-.82,1.33,1.33,0,0,1-.33-.49.43.43,0,0,1,.06-.38c.57-.77,1.16-1.52,1.75-2.28.26-.34.33-.33.53,0a20.71,20.71,0,0,0,2.49,3.54c.64.65,1.31,1.27,2,1.85a19.66,19.66,0,0,0,1.78,1.25c.68.43,1.38.82,2.09,1.21s1.75.9,2.61,1.37,1.52.9,2.28,1.35l2.35,1.31c.31.18.6.39.91.58a.42.42,0,0,0,.24,0,.79.79,0,0,0,.06-.21V6.88a.84.84,0,0,0-1-.94h-.55Z"/><path class="cls-1" d="M118.21,11.29h-6.48c-.64,0-.69.08-.58.72a4.86,4.86,0,0,0,1.29,2.55,14.06,14.06,0,0,0,2.3,2.06,12.73,12.73,0,0,0,2.4,1.18,9.37,9.37,0,0,0,4,.45,8.27,8.27,0,0,0,1.57-.43c.35-.11.68-.27,1-.4h.19c.07,0,0,.17-.07.21a13,13,0,0,1-1.39,1.17,19.72,19.72,0,0,1-2.13,1,4.15,4.15,0,0,1-1,.22,10.74,10.74,0,0,1-1.7.15,15.52,15.52,0,0,1-1.79-.29,8.43,8.43,0,0,1-2.86-1.3c-.58-.42-1.15-.88-1.69-1.36-.15-.1-.29-.21-.43-.32a8.66,8.66,0,0,1-1.8-2.33,5.56,5.56,0,0,1-.26-3.75,10.14,10.14,0,0,1,.57-1.63,9.66,9.66,0,0,1,3.09-3.65,11.06,11.06,0,0,1,2.75-1.48,9.77,9.77,0,0,1,3.33-.62,13.37,13.37,0,0,1,1.4-.1,18.1,18.1,0,0,1,3.6.46c.68.2,1.34.43,2,.64.25.08.24.21.07.37-.53.52-1.06,1-1.6,1.54a.46.46,0,0,1-.35.08c-.6-.2-1.19-.46-1.8-.64-.8-.23-1.62-.42-2.44-.59a12.44,12.44,0,0,0-1.83-.28,12.31,12.31,0,0,0-1.92,0,6,6,0,0,0-1.31.27,3.86,3.86,0,0,0-2.41,1.69,6.94,6.94,0,0,0-.56,1,12.39,12.39,0,0,0-.31,1.52c0,.22.13.23.29.24h2.53l8.13,0h1.26a15.45,15.45,0,0,0,1.67,0,9.69,9.69,0,0,0,2.58-.08c.3-.09.6-.17.9-.23a.35.35,0,0,1,.26.08c.1.08-.08.19-.16.23a12,12,0,0,1-1.34.83,14,14,0,0,1-1.6.63,8.35,8.35,0,0,1-2.59.14h-4.78Z"/><path class="cls-1" d="M105.52,20.5l.09-.25c.2-.37.11-.6-.3-.68a4.06,4.06,0,0,0-.92-.11H95.68a1.5,1.5,0,0,1-.34-.11,1.28,1.28,0,0,1,.18-.35.88.88,0,0,0,.23-.63V8.24a2,2,0,0,0-.56-1.65A4.2,4.2,0,0,0,94,6c-.24-.11-.29-.21-.08-.37a20.38,20.38,0,0,1,1.7-1.23,10.74,10.74,0,0,1,1.61-.84,1.47,1.47,0,0,1,.88,0c.38.1.41.5.48.82a1.7,1.7,0,0,1,0,.45V17.37a.3.3,0,0,0,.3.26h9.75a.62.62,0,0,1,.42.2s-.05.29-.15.37a14.39,14.39,0,0,1-1.22,1c-.59.44-1.2.85-1.81,1.26C105.85,20.5,105.73,20.48,105.52,20.5Z"/><path class="cls-1" d="M91.6,11.11v6.75a.79.79,0,0,1-.32.66c-.75.63-1.49,1.27-2.23,1.91-.13.11-.26.13-.32-.07a1.44,1.44,0,0,1-.09-.4V9.81c0-.58,0-1.16,0-1.75a1,1,0,0,0-.66-1,3.35,3.35,0,0,0-.7-.22.47.47,0,0,1-.35-.18c-.07-.1.06-.23.13-.33a11.89,11.89,0,0,1,2.2-2.17,8.63,8.63,0,0,1,1.26-.84c.46-.24,1,.24,1,.86v6.93Z"/><path class="cls-1" d="M157.71,10.93V17.8a.7.7,0,0,1-.29.62c-.69.57-1.36,1.15-2,1.72a1.68,1.68,0,0,1-.39.16,3,3,0,0,1-.12-.4V8.75a5.13,5.13,0,0,0-.15-1.24c-.09-.38-.46-.51-.77-.66a2.54,2.54,0,0,0-.67-.17c-.23,0-.26-.15-.12-.35a12.65,12.65,0,0,1,2.07-2.13,6,6,0,0,1,1.4-1,.72.72,0,0,1,1,.25.74.74,0,0,1,.09.36v.57Q157.71,7.67,157.71,10.93Z"/><path class="cls-1" d="M176.91,8.13a3.39,3.39,0,0,0-.13-.55,9,9,0,0,0-1.26-2.26,6.32,6.32,0,0,0-1.33-1.14,5.09,5.09,0,0,0-1.72-.75,8.45,8.45,0,0,0-2-.33,8.27,8.27,0,0,0-3,.35c-.77.26-1.56.47-2.3.8a11.12,11.12,0,0,0-2.41,1.49A8.05,8.05,0,0,0,161,7.65a11,11,0,0,0-1.07,2,10.48,10.48,0,0,0-.56,3c0,.2.1.41.09.62A4.54,4.54,0,0,0,159.8,15a1.85,1.85,0,0,1,.18.44,5.7,5.7,0,0,0,1.11,2,8.67,8.67,0,0,0,1.29,1.35,5.26,5.26,0,0,0,1.1.64c.37.16.79.21,1.16.38a5.45,5.45,0,0,0,1.84.2,12,12,0,0,0,4.25-.94,12.24,12.24,0,0,0,2.89-1.73A9.49,9.49,0,0,0,176,14.6a10.66,10.66,0,0,0,.59-1.4,5.68,5.68,0,0,0,.58-2.49V9.14A2.19,2.19,0,0,0,176.91,8.13Zm-2.47,5.81a4.87,4.87,0,0,1-.65,2.09,3.4,3.4,0,0,1-1.72,1.6,14,14,0,0,1-1.33.48,5.54,5.54,0,0,1-1,.06,6.53,6.53,0,0,1-1.9-.32,9.41,9.41,0,0,1-2.13-1,6.28,6.28,0,0,1-1.05-.88,9.83,9.83,0,0,1-1-1.14,11.4,11.4,0,0,1-.74-1.32,6.82,6.82,0,0,1-.45-3.4A5.19,5.19,0,0,1,162.55,9,5.3,5.3,0,0,1,163,7.38c.13-.31.27-.61.42-.89A4.17,4.17,0,0,1,165,5.05a4.67,4.67,0,0,1,2.6-.39,7,7,0,0,1,2.63.69,6.28,6.28,0,0,1,1.53,1.07A7.87,7.87,0,0,1,173.59,9a8.4,8.4,0,0,1,.59,1.84,13.36,13.36,0,0,1,.32,1.91,6,6,0,0,1-.07,1.2Z"/><path class="cls-1" d="M16.52,7.55a.56.56,0,0,0-.13-1A64.12,64.12,0,0,1,1.8.07a.45.45,0,0,0-.53,0L.13,1.23a.41.41,0,0,0,0,.56l0,0C2.27,3.56,7.46,5.7,11.84,7c0,0-8,5.18-9.55,9-1.7,4.09,0,6.58.71,7.3a.69.69,0,0,0,.51.26h3C8.26,23.26,1.84,17.4,16.52,7.55Z"/><path class="cls-1" d="M46.4,1.23,45.26.12a.44.44,0,0,0-.53-.06,54.78,54.78,0,0,1-6.1,3.24A24.78,24.78,0,0,1,28.46,5.54,30,30,0,0,0,35.8,1.81a.39.39,0,0,0,0-.55l0,0L34.71.12a.44.44,0,0,0-.53-.06,60.72,60.72,0,0,1-10.29,5,25.11,25.11,0,0,1-5-1.6L17,2.6l-.42-.22h0Q14.39,1.27,12.46.07a.44.44,0,0,0-.53.06l-1.17,1.1a.41.41,0,0,0,0,.56l0,0C12.9,3.55,18.09,5.7,22.46,7c0,0-8,5.18-9.55,9-1.7,4.09.05,6.58.71,7.3a.69.69,0,0,0,.51.26h3c1.43-.3-2.81-4.42,4.33-11.5a13.11,13.11,0,0,1,2.06-1.4c9.27,8,4.35,12.62,5.88,12.9h3a.69.69,0,0,0,.51-.26c.66-.72,2.41-3.19.71-7.29-.92-2.22-4.08-4.94-6.51-6.8.5-.14,1-.25,1.47-.34h.3A14.79,14.79,0,0,1,34.46,11c8.74,7.75,4,12.28,5.48,12.58h3a.69.69,0,0,0,.51-.26c.66-.72,2.41-3.19.71-7.29-1.57-3.77-9.55-9-9.55-9C39,5.69,44.18,3.54,46.29,1.79a.38.38,0,0,0,.12-.53Z"/></g></g></g></svg>