<svg xmlns="http://www.w3.org/2000/svg" viewBox="0 0 125.61 48.71">
    <defs>
        <style>.cls-1{fill:#E6BF2C;}</style>
    </defs>
    <title>icon-milenio</title>
    <g id="Layer_2" data-name="Layer 2">
        <g id="BG">
            <path class="cls-1"
                  d="M28.24,48.61l.06.09a.84.84,0,0,0,.31-.05c.34-.21.67-.46,1-.67a11.35,11.35,0,0,0,3.79-3.6,7.83,7.83,0,0,0,1-2.19,5,5,0,0,0,.21-.9,10.9,10.9,0,0,0,0-1.91c-.06-.53-.32-1-.42-1.56a7.09,7.09,0,0,0-.81-2,7.44,7.44,0,0,0-2.09-2.48,6.4,6.4,0,0,0-1.37-.79,5.57,5.57,0,0,0-2-.43,11.5,11.5,0,0,0-1.62-.07,13.45,13.45,0,0,0-2.68.45c-.69.24-1.42.39-2.12.62s-1.54.55-2.31.8a.83.83,0,0,1-.56-.08c-.62-.31-1.22-.66-1.83-1a7.47,7.47,0,0,0-2.33-.81c-1-.17-2-.25-3-.33a4.44,4.44,0,0,0-1.07.09A22.53,22.53,0,0,0,8,32.27a17.08,17.08,0,0,0-2.16.83,10.14,10.14,0,0,0-1.36.73,11.73,11.73,0,0,0-1.17.88,9.27,9.27,0,0,0-1.87,2.06,11.44,11.44,0,0,0-1,2A5.55,5.55,0,0,0,0,40.55,7.9,7.9,0,0,0,.48,44.3a11.57,11.57,0,0,0,1.05,2.09c.48.69,1,1.33,1.54,2a.27.27,0,0,0,.42,0l2.05-1.9c.21-.19.18-.36,0-.56s-.57-.67-.85-1a7.83,7.83,0,0,1-1.1-2.08,9,9,0,0,1-.43-1.55,15.6,15.6,0,0,1-.28-1.83,7,7,0,0,1,.27-2.37A4.21,4.21,0,0,1,4,35.43a5.82,5.82,0,0,1,2.84-1.61,7.52,7.52,0,0,1,1.38-.26,5.73,5.73,0,0,1,1.38-.05c.86.11,1.71.29,2.56.48a4.48,4.48,0,0,1,1.16.43c.73.4,1.42.88,2.15,1.28a1.11,1.11,0,0,1,.62,1.12c0,3.85,0,7.7,0,11.54a1.16,1.16,0,0,0,.1.32,3.15,3.15,0,0,0,.28-.17c.08-.06.15-.14.22-.21.67-.6,1.35-1.19,2-1.81a.75.75,0,0,0,.23-.48c0-3.35,0-6.69,0-10a2.88,2.88,0,0,1,0-.48.39.39,0,0,1,.16-.26c.67-.33,1.33-.68,2-1a6.27,6.27,0,0,1,1.65-.47,7.48,7.48,0,0,1,3.31.29,6.41,6.41,0,0,1,2.49,1.65,10.65,10.65,0,0,1,2.17,3.51,8.46,8.46,0,0,1,.52,2.11,7.23,7.23,0,0,1-.47,3.68,9.47,9.47,0,0,1-2.37,3.28A2.06,2.06,0,0,0,28.24,48.61ZM95.62,34l.06.11a4.21,4.21,0,0,0,.55,0c.67-.09,1,.36,1,.94,0,2.89,0,5.79,0,8.68,0,.07,0,.2-.06.21a.34.34,0,0,1-.24-.05c-.31-.19-.6-.4-.91-.58L93.69,42c-.76-.45-1.51-.92-2.28-1.35s-1.74-.9-2.61-1.37c-.71-.38-1.41-.78-2.09-1.21a17.48,17.48,0,0,1-1.78-1.25,25,25,0,0,1-2-1.85,20.53,20.53,0,0,1-2.5-3.43c-.19-.3-.26-.3-.53,0-.58.76-1.18,1.51-1.75,2.28a.46.46,0,0,0-.06.38,1.38,1.38,0,0,0,.33.49,1,1,0,0,1,.3.82c0,3.05,0,6.11,0,9.16,0,1.07,0,2.15.07,3.22a.6.6,0,0,0,.73.63,1.58,1.58,0,0,0,.7-.32c.66-.61,1.29-1.26,1.92-1.89.17-.18.13-.31-.11-.39a2.18,2.18,0,0,1-.65-.21,1.49,1.49,0,0,1-.79-1.26c0-.26,0-.52,0-.78q0-3,0-6.06c0-.08,0-.2.09-.22a.3.3,0,0,1,.24.07c.43.33.85.67,1.28,1,.75.57,1.49,1.13,2.26,1.68.48.34,1,.67,1.47,1s1.32.73,2,1.09c.34.18.69.36,1,.52a15.9,15.9,0,0,1,1.68.8c1,.6,1.88,1.27,2.8,1.93a13.62,13.62,0,0,1,1.33,1.12c.6.57,1.18,1.17,1.77,1.76.16.16.27.16.41,0,.34-.49.71-1,1-1.46s.81-1.31,1.2-2a.64.64,0,0,0,.07-.31q0-5.7,0-11.39A5.18,5.18,0,0,0,99,31.9a.54.54,0,0,0-.92-.3,11.22,11.22,0,0,0-1.51,1.22A10.44,10.44,0,0,0,95.62,34ZM66.69,39.49h0c1.6,0,3.19,0,4.79,0a8.26,8.26,0,0,0,2.6-.14,13.05,13.05,0,0,0,1.6-.63A13.19,13.19,0,0,0,77,37.89c.07,0,.11-.15.16-.23s-.18-.09-.26-.08c-.3.06-.6.14-.9.23a9.36,9.36,0,0,1-2.52.22c-.56,0-1.12,0-1.67,0s-.84,0-1.26,0l-8.13-.05H59.89c-.16,0-.33,0-.29-.24a11.22,11.22,0,0,1,.31-1.52,5.92,5.92,0,0,1,.56-1,3.85,3.85,0,0,1,2.41-1.69,6.16,6.16,0,0,1,1.31-.27,13.07,13.07,0,0,1,1.92,0,13.71,13.71,0,0,1,1.83.28c.82.17,1.63.36,2.44.59.61.17,1.19.44,1.8.64a.42.42,0,0,0,.35-.08c.54-.5,1.07-1,1.6-1.54.16-.16.17-.29-.07-.37-.67-.21-1.34-.44-2-.64a18.52,18.52,0,0,0-3.65-.49,13.76,13.76,0,0,0-1.4.1,9.9,9.9,0,0,0-3.34.71,11.34,11.34,0,0,0-2.76,1.48,9.75,9.75,0,0,0-3.09,3.65,10.53,10.53,0,0,0-.56,1.63,5.48,5.48,0,0,0,.26,3.75,8.41,8.41,0,0,0,1.8,2.33,4.06,4.06,0,0,0,.43.32,18.53,18.53,0,0,0,1.69,1.36,8.14,8.14,0,0,0,2.86,1.3,13.71,13.71,0,0,0,1.79.29,9.87,9.87,0,0,0,1.7-.15,3.77,3.77,0,0,0,1-.22,19,19,0,0,0,2.13-1,13.52,13.52,0,0,0,1.47-1.13s0-.14.07-.21-.14-.05-.19,0c-.34.13-.68.28-1,.4a7.62,7.62,0,0,1-1.57.43,9.31,9.31,0,0,1-4-.45,12,12,0,0,1-2.4-1.22,12.77,12.77,0,0,1-2.3-2.06,4.78,4.78,0,0,1-1.29-2.55c-.11-.64-.06-.71.58-.72h6.48ZM54,48.7c.16,0,.28,0,.36-.06.61-.41,1.22-.82,1.81-1.26.43-.32.83-.66,1.22-1,.09-.08.19-.32.15-.37a.65.65,0,0,0-.42-.2c-.68,0-1.36,0-2,0H47.36c-.19,0-.29-.07-.3-.26s0-.2,0-.3q0-6.13,0-12.27a2.11,2.11,0,0,0,0-.45c-.07-.33-.11-.73-.48-.82a1.48,1.48,0,0,0-.88,0,10.58,10.58,0,0,0-1.61.84c-.59.37-1.14.8-1.7,1.23-.21.16-.16.26.08.37a4.8,4.8,0,0,1,1.21.62,2.05,2.05,0,0,1,.56,1.65q0,5.06,0,10.13a.9.9,0,0,1-.23.63,1.14,1.14,0,0,0-.13.34,1.2,1.2,0,0,0,.34.11l8.71,0a5.07,5.07,0,0,1,.92.11c.41.08.5.31.3.68A2.11,2.11,0,0,0,54,48.7Zm-14-9.39h0q0-2.4,0-4.79c0-.71,0-1.43,0-2.14s-.57-1.1-1-.86a8.26,8.26,0,0,0-1.33.85,12.39,12.39,0,0,0-2.2,2.17c-.07.09-.16.27-.13.33s.22.14.35.18a4.27,4.27,0,0,1,.7.22,1.06,1.06,0,0,1,.66,1c0,.58,0,1.16,0,1.75q0,5.08,0,10.15a1.36,1.36,0,0,0,.09.4c.06.2.2.17.32.07.75-.63,1.48-1.28,2.23-1.91a.78.78,0,0,0,.32-.66C40.07,43.81,40.08,41.56,40.08,39.31Zm66.11-.19q0-3.26,0-6.51c0-.19,0-.38,0-.57a.71.71,0,0,0-1.07-.61,5.93,5.93,0,0,0-1.4,1,12.8,12.8,0,0,0-2.07,2.13c-.14.2-.11.3.12.35a3,3,0,0,1,.67.17c.31.15.68.28.77.66a5.57,5.57,0,0,1,.15,1.24c0,3.72,0,7.43,0,11.15a1.43,1.43,0,0,0,.12.4,1.44,1.44,0,0,0,.39-.16c.69-.57,1.36-1.16,2-1.72a.72.72,0,0,0,.29-.62C106.18,43.71,106.19,41.42,106.19,39.13Z"/>
            <path class="cls-1"
                  d="M28.24,48.61a2.06,2.06,0,0,1,.2-.26,9.47,9.47,0,0,0,2.37-3.28,7.23,7.23,0,0,0,.47-3.68,8.46,8.46,0,0,0-.52-2.11,10.65,10.65,0,0,0-2.17-3.51,6.41,6.41,0,0,0-2.49-1.65,7.48,7.48,0,0,0-3.31-.29,6.27,6.27,0,0,0-1.65.47c-.69.27-1.35.62-2,1a.39.39,0,0,0-.16.26,2.88,2.88,0,0,0,0,.48c0,3.35,0,6.69,0,10a.75.75,0,0,1-.23.48c-.66.62-1.34,1.21-2,1.81-.07.07-.14.15-.22.21a3.15,3.15,0,0,1-.28.17,1.16,1.16,0,0,1-.1-.32c0-3.85,0-7.7,0-11.54a1.11,1.11,0,0,0-.62-1.12c-.73-.4-1.42-.88-2.15-1.28A4.48,4.48,0,0,0,12.16,34c-.85-.19-1.7-.37-2.56-.48a5.73,5.73,0,0,0-1.38.05,7.52,7.52,0,0,0-1.38.26A5.82,5.82,0,0,0,4,35.43a4.21,4.21,0,0,0-.84,1.7,7,7,0,0,0-.27,2.37,15.6,15.6,0,0,0,.28,1.83,9,9,0,0,0,.43,1.55A7.83,7.83,0,0,0,4.69,45c.28.34.55.69.85,1s.22.37,0,.56L3.5,48.42a.27.27,0,0,1-.42,0c-.52-.66-1.06-1.31-1.54-2A11.57,11.57,0,0,1,.48,44.3,7.9,7.9,0,0,1,0,40.55a5.55,5.55,0,0,1,.42-1.74,11.44,11.44,0,0,1,1-2,9.27,9.27,0,0,1,1.87-2.06,11.73,11.73,0,0,1,1.17-.88,10.14,10.14,0,0,1,1.36-.73A17.08,17.08,0,0,1,8,32.27a22.53,22.53,0,0,1,2.38-.45,4.44,4.44,0,0,1,1.07-.09c1,.08,2,.16,3,.33a7.47,7.47,0,0,1,2.33.81c.61.34,1.21.68,1.83,1a.83.83,0,0,0,.56.08c.78-.25,1.54-.55,2.31-.8s1.42-.38,2.12-.62a13.45,13.45,0,0,1,2.68-.45,11.5,11.5,0,0,1,1.62.07,5.57,5.57,0,0,1,2,.43,6.4,6.4,0,0,1,1.37.79,7.44,7.44,0,0,1,2.09,2.48,7.09,7.09,0,0,1,.81,2c.11.53.37,1,.42,1.56a10.9,10.9,0,0,1,0,1.91,5,5,0,0,1-.21.9,7.83,7.83,0,0,1-1,2.19A11.35,11.35,0,0,1,29.62,48c-.35.21-.67.46-1,.67a.84.84,0,0,1-.31.05Z"/>
            <path class="cls-1"
                  d="M95.62,34a10.44,10.44,0,0,1,.94-1.23,11.22,11.22,0,0,1,1.51-1.22.54.54,0,0,1,.92.3,5.18,5.18,0,0,1,.16,1.27q0,5.7,0,11.39a.64.64,0,0,1-.07.31c-.39.66-.78,1.32-1.2,2s-.7,1-1,1.46c-.13.19-.25.2-.41,0-.58-.59-1.16-1.19-1.77-1.76a13.62,13.62,0,0,0-1.33-1.12c-.92-.67-1.84-1.33-2.8-1.93a15.9,15.9,0,0,0-1.68-.8c-.35-.17-.7-.34-1-.52-.66-.36-1.33-.71-2-1.09s-1-.63-1.47-1c-.76-.55-1.51-1.11-2.26-1.68-.43-.33-.85-.67-1.28-1a.3.3,0,0,0-.24-.07c-.05,0-.08.14-.09.22q0,3,0,6.06c0,.26,0,.52,0,.78a1.49,1.49,0,0,0,.79,1.26,2.18,2.18,0,0,0,.65.21c.24.07.29.21.11.39-.64.64-1.26,1.28-1.92,1.89a1.58,1.58,0,0,1-.7.32.6.6,0,0,1-.73-.63c0-1.07-.07-2.15-.07-3.22,0-3.05,0-6.11,0-9.16a1,1,0,0,0-.3-.82,1.38,1.38,0,0,1-.33-.49.46.46,0,0,1,.06-.38c.57-.77,1.16-1.52,1.75-2.28.26-.34.34-.33.53,0A20.53,20.53,0,0,0,82.89,35a25,25,0,0,0,2,1.85,17.48,17.48,0,0,0,1.78,1.25c.68.43,1.38.82,2.09,1.21.86.47,1.75.9,2.61,1.37s1.52.9,2.28,1.35L96,43.34c.31.18.6.39.91.58a.34.34,0,0,0,.24.05s.06-.14.06-.21c0-2.89,0-5.79,0-8.68,0-.58-.3-1-1-.94a4.21,4.21,0,0,1-.55,0Z"/>
            <path class="cls-1"
                  d="M66.69,39.49H60.21c-.64,0-.69.08-.58.72a4.78,4.78,0,0,0,1.29,2.55,12.77,12.77,0,0,0,2.3,2.06A12,12,0,0,0,65.62,46a9.31,9.31,0,0,0,4,.45,7.62,7.62,0,0,0,1.57-.43c.35-.11.68-.27,1-.4.05,0,.13,0,.19,0s0,.17-.07.21A13.52,13.52,0,0,1,70.92,47a19,19,0,0,1-2.13,1,3.77,3.77,0,0,1-1,.22,9.87,9.87,0,0,1-1.7.15,13.71,13.71,0,0,1-1.79-.29,8.14,8.14,0,0,1-2.86-1.3,18.53,18.53,0,0,1-1.69-1.36,4.06,4.06,0,0,1-.43-.32,8.41,8.41,0,0,1-1.8-2.33,5.48,5.48,0,0,1-.26-3.75,10.53,10.53,0,0,1,.56-1.63,9.75,9.75,0,0,1,3.09-3.65,11.34,11.34,0,0,1,2.76-1.48A9.9,9.9,0,0,1,67,31.64a13.76,13.76,0,0,1,1.4-.1A18.52,18.52,0,0,1,72,32c.68.2,1.34.43,2,.64.25.08.24.21.07.37-.53.52-1.06,1-1.6,1.54a.42.42,0,0,1-.35.08c-.6-.2-1.19-.46-1.8-.64-.8-.23-1.62-.42-2.44-.59a13.71,13.71,0,0,0-1.83-.28,13.07,13.07,0,0,0-1.92,0,6.16,6.16,0,0,0-1.31.27,3.85,3.85,0,0,0-2.41,1.69,5.92,5.92,0,0,0-.56,1,11.22,11.22,0,0,0-.31,1.52c0,.22.13.23.29.24h2.53l8.13.05c.42,0,.84,0,1.26,0s1.12.06,1.67,0A9.36,9.36,0,0,0,76,37.81c.3-.09.6-.17.9-.23.08,0,.17,0,.26.08s-.09.19-.16.23a13.19,13.19,0,0,1-1.34.83,13.05,13.05,0,0,1-1.6.63,8.26,8.26,0,0,1-2.6.14c-1.6,0-3.19,0-4.79,0Z"/>
            <path class="cls-1"
                  d="M54,48.7a2.11,2.11,0,0,1,.09-.25c.2-.37.11-.6-.3-.68a5.07,5.07,0,0,0-.92-.11l-8.71,0a1.2,1.2,0,0,1-.34-.11A1.14,1.14,0,0,1,44,47.2a.9.9,0,0,0,.23-.63q0-5.06,0-10.13a2.05,2.05,0,0,0-.56-1.65,4.8,4.8,0,0,0-1.21-.62c-.24-.11-.29-.21-.08-.37.55-.43,1.11-.86,1.7-1.23a10.58,10.58,0,0,1,1.61-.84,1.48,1.48,0,0,1,.88,0c.38.1.41.5.48.82a2.11,2.11,0,0,1,0,.45q0,6.13,0,12.27c0,.1,0,.2,0,.3s.11.26.3.26h7.75c.68,0,1.37,0,2,0a.65.65,0,0,1,.42.2s-.05.29-.15.37c-.39.35-.8.7-1.22,1-.59.44-1.2.85-1.81,1.26C54.33,48.7,54.21,48.68,54,48.7Z"/>
            <path class="cls-1"
                  d="M40.08,39.31c0,2.25,0,4.5,0,6.75a.78.78,0,0,1-.32.66c-.75.63-1.49,1.27-2.23,1.91-.13.11-.26.13-.32-.07a1.36,1.36,0,0,1-.09-.4q0-5.08,0-10.15c0-.58-.05-1.16,0-1.75a1.06,1.06,0,0,0-.66-1,4.27,4.27,0,0,0-.7-.22c-.13,0-.28-.08-.35-.18s.06-.23.13-.33a12.39,12.39,0,0,1,2.2-2.17A8.26,8.26,0,0,1,39,31.52c.46-.24,1,.24,1,.86s0,1.43,0,2.14q0,2.4,0,4.79Z"/>
            <path class="cls-1"
                  d="M106.19,39.13c0,2.29,0,4.58,0,6.87a.72.72,0,0,1-.29.62c-.69.57-1.36,1.15-2,1.72a1.44,1.44,0,0,1-.39.16,1.43,1.43,0,0,1-.12-.4c0-3.72,0-7.43,0-11.15a5.57,5.57,0,0,0-.15-1.24c-.09-.38-.46-.51-.77-.66a3,3,0,0,0-.67-.17c-.23-.05-.27-.15-.12-.35a12.8,12.8,0,0,1,2.07-2.13,5.93,5.93,0,0,1,1.4-1,.71.71,0,0,1,1.07.61c0,.19,0,.38,0,.57Q106.19,35.87,106.19,39.13Z"/>
            <path class="cls-1"
                  d="M125.39,36.33a4,4,0,0,0-.13-.55A9.59,9.59,0,0,0,124,33.52a6.8,6.8,0,0,0-1.33-1.14,5.37,5.37,0,0,0-1.72-.75,9.19,9.19,0,0,0-2-.33,8.59,8.59,0,0,0-3,.35c-.77.26-1.56.47-2.3.8a11.5,11.5,0,0,0-2.41,1.49,8,8,0,0,0-1.77,1.91,11,11,0,0,0-1.07,2,10.22,10.22,0,0,0-.56,3c0,.2.1.41.09.62a4.23,4.23,0,0,0,.35,1.74,3.29,3.29,0,0,1,.18.44,5.43,5.43,0,0,0,1.11,2A8,8,0,0,0,110.86,47a4.87,4.87,0,0,0,1.1.64c.37.16.79.21,1.16.38a5.12,5.12,0,0,0,1.84.2,9,9,0,0,0,1.8-.2,9.29,9.29,0,0,0,2.45-.74,12.14,12.14,0,0,0,2.89-1.73,9.47,9.47,0,0,0,2.34-2.75,10.84,10.84,0,0,0,.59-1.4,5.84,5.84,0,0,0,.58-2.49c0-.19,0-.38,0-.57s0-.67,0-1A2.36,2.36,0,0,0,125.39,36.33Zm-2.47,5.81a5,5,0,0,1-.65,2.09,3.41,3.41,0,0,1-1.72,1.6,11.44,11.44,0,0,1-1.33.48,5.07,5.07,0,0,1-1,.06,6.19,6.19,0,0,1-1.9-.32,8.69,8.69,0,0,1-2.13-1,5.48,5.48,0,0,1-1.05-.88,8.62,8.62,0,0,1-1-1.14,9.52,9.52,0,0,1-.74-1.32,6.71,6.71,0,0,1-.45-3.4c0-.37,0-.74.08-1.11a5.24,5.24,0,0,1,.47-1.62,7.78,7.78,0,0,1,.42-.89,4.14,4.14,0,0,1,1.57-1.44,4.73,4.73,0,0,1,2.6-.39,7.24,7.24,0,0,1,2.63.69,6.62,6.62,0,0,1,1.53,1.07,8,8,0,0,1,1.82,2.56,9,9,0,0,1,.59,1.84,14.21,14.21,0,0,1,.32,1.91A7,7,0,0,1,122.91,42.13Z"/>
            <path class="cls-1"
                  d="M56.06,7.55a.56.56,0,0,0-.13-1A64.58,64.58,0,0,1,41.34.07a.43.43,0,0,0-.53.05L39.67,1.23a.39.39,0,0,0,0,.58C41.81,3.56,47,5.7,51.38,7c0,0-8,5.18-9.55,8.95-1.7,4.09.05,6.58.71,7.3a.73.73,0,0,0,.51.26h3C47.8,23.26,41.38,17.4,56.06,7.55Z"/>
            <path class="cls-1"
                  d="M85.94,1.23,84.8.12a.43.43,0,0,0-.53-.06,56.88,56.88,0,0,1-6.1,3.24A24.85,24.85,0,0,1,68,5.54a30.22,30.22,0,0,0,7.34-3.73.39.39,0,0,0,0-.58L74.25.12a.43.43,0,0,0-.53-.06,60.88,60.88,0,0,1-10.29,5,26,26,0,0,1-5-1.6Q57.47,3,56.57,2.6l-.42-.22h0Q53.93,1.27,52,.07a.43.43,0,0,0-.53.06L50.3,1.23a.39.39,0,0,0,0,.58C52.44,3.55,57.63,5.7,62,7c0,0-8,5.18-9.55,8.95-1.7,4.09.05,6.58.71,7.3a.73.73,0,0,0,.51.26h3c1.43-.3-2.81-4.42,4.33-11.5a12.93,12.93,0,0,1,2.06-1.4c9.27,8,4.35,12.62,5.88,12.9h3a.73.73,0,0,0,.51-.26c.66-.72,2.41-3.19.71-7.29-.92-2.22-4.08-4.94-6.51-6.8.5-.14,1-.25,1.47-.34a.86.86,0,0,1,.3,0A14.67,14.67,0,0,1,74,11c8.74,7.75,4,12.28,5.48,12.58h3a.73.73,0,0,0,.51-.26c.66-.72,2.41-3.19.71-7.29-1.57-3.77-9.55-9-9.55-9,4.38-1.34,9.57-3.49,11.68-5.24A.39.39,0,0,0,85.94,1.23Z"/>
        </g>
    </g>
</svg>