<svg xmlns="http://www.w3.org/2000/svg" xmlns:xlink="http://www.w3.org/1999/xlink" viewBox="0 0 82.88 91.62"><defs><style>.cls-1{fill:none;}.cls-2{fill:#3e3f3f;}.cls-3{clip-path:url(#clip-path);}.cls-4{fill:#1d1e1e;}.cls-5{fill:#18456d;}.cls-6{fill:#0b3249;}.cls-7{fill:#1d7099;}.cls-8{fill:#1b5a89;}.cls-9{fill:#ff9700;}.cls-10{fill:#ffb000;}.cls-11{fill:#fff;}</style><clipPath id="clip-path" transform="translate(0 -0.15)"><rect class="cls-1" width="82.85" height="92"/></clipPath></defs><title>icon_loja_inteligente</title><g id="Layer_2" data-name="Layer 2"><g id="Layer_1-2" data-name="Layer 1"><path class="cls-2" d="M46.6,32.7h-.45a2.87,2.87,0,0,1-2.41-3.31L46,16A10,10,0,0,0,35.9,6,10.26,10.26,0,0,0,25.66,16.28v.45L23.24,30.29a2.94,2.94,0,0,1-3.47,2.41,3.12,3.12,0,0,1-2.41-3.31L19.63,16a16.2,16.2,0,0,1,32.4.15v.45L49.62,30.14a2.93,2.93,0,0,1-3,2.56Zm0,0" transform="translate(0 -0.15)"/><g class="cls-3"><path class="cls-4" d="M46.15,32.7h.45a2.91,2.91,0,0,0,2.86-2.41l2.11-11.9a16.15,16.15,0,0,0-31.95,3L17.82,31.65a3,3,0,0,0,1.81,1.2,2.94,2.94,0,0,0,3.47-2.41l2.41-13.56v-.45A10.25,10.25,0,0,1,46,16.12l-.45,2.71A8.79,8.79,0,0,1,46,21.7L44.19,31.8a7.74,7.74,0,0,0,2,.9Zm0,0" transform="translate(0 -0.15)"/><path class="cls-5" d="M82.77,87.25,74.63,27.58A3.71,3.71,0,0,0,71,24.41H11.94a3.6,3.6,0,0,0-3.62,3.16L0,87.71a3.33,3.33,0,0,0,.9,2.86,3.77,3.77,0,0,0,2.71,1.21h75.5a3.67,3.67,0,0,0,3.62-3.62,1,1,0,0,0,0-.9Zm0,0" transform="translate(0 -0.15)"/></g><path class="cls-6" d="M76.29,40.39l-13-13-3.92,3.92L72.67,68.72Zm0,0" transform="translate(0 -0.15)"/><path class="cls-6" d="M61.67,52.14,57.75,82.43,32.89,31.34,37,27.43Zm0,0" transform="translate(0 -0.15)"/><g class="cls-3"><path class="cls-6" d="M22.79,91.77H79.15a3.67,3.67,0,0,0,3.62-3.62,1.91,1.91,0,0,0-.15-.9l-8-59.68A3.71,3.71,0,0,0,71,24.41" transform="translate(0 -0.15)"/><path class="cls-7" d="M24.3,88.16a1.91,1.91,0,0,0-.15-.9L15.86,27.58a3.71,3.71,0,0,0-3.62-3.16h-.3a3.6,3.6,0,0,0-3.62,3.16L0,87.71a3.33,3.33,0,0,0,.9,2.86,3.77,3.77,0,0,0,2.71,1.21H20.53a3.61,3.61,0,0,0,3.77-3.62Zm0,0" transform="translate(0 -0.15)"/></g><path class="cls-8" d="M.94,90.57a3.77,3.77,0,0,0,2.71,1.21H20.53a3.67,3.67,0,0,0,3.62-3.62,1.92,1.92,0,0,0-.15-.9L15.86,27.58a3.71,3.71,0,0,0-3.62-3.16h-.3" transform="translate(0 -0.15)"/><path class="cls-8" d="M61.52,32.7a2.91,2.91,0,0,1-2.86-2.41L56.25,16.73v-.45A10.25,10.25,0,0,0,35.75,16L38,29.39a3,3,0,0,1-5.88,1.06L29.72,16.88v-.45A16.13,16.13,0,0,1,62,16.12l2.26,13.41A2.94,2.94,0,0,1,61.82,33c0-.3-.15-.3-.3-.3Zm0,0" transform="translate(0 -0.15)"/><path class="cls-5" d="M62.12,16.12a16.12,16.12,0,0,0-31.19,5.73v.45L32.44,31A2.84,2.84,0,0,0,35.6,32.7,2.94,2.94,0,0,0,38,29.24L35.75,15.82a10.25,10.25,0,0,1,20.49.3v.45l.15,1.05a9.45,9.45,0,0,1,.9,4.07v.45l1.51,8.74a2.85,2.85,0,0,0,2.71,1.66H62a2.94,2.94,0,0,0,2.41-3.47Zm0,0" transform="translate(0 -0.15)"/><path class="cls-9" d="M58.74,58.51a5.53,5.53,0,0,0-2-10.38,7.35,7.35,0,0,0-14.67.62V68.27a7.35,7.35,0,0,0,14.67.62,5.53,5.53,0,0,0,2-10.38Z" transform="translate(0 -0.15)"/><path class="cls-10" d="M24.1,58.51a5.53,5.53,0,0,0,2,10.38,7.35,7.35,0,0,0,14.67-.62V48.75a7.35,7.35,0,0,0-14.67-.62,5.53,5.53,0,0,0-2,10.38Z" transform="translate(0 -0.15)"/><path class="cls-9" d="M36.72,43.26c-3.1,3.1-6.82,7.13-7.44,15.19a37.26,37.26,0,0,0,2.79,17c3.55-.52,8.68-3.54,8.68-7.23V48.75C40.75,45.06,38,44.19,36.72,43.26Z" transform="translate(0 -0.15)"/><path class="cls-11" d="M26.74,53a.65.65,0,1,0,0,1.31,4.23,4.23,0,0,1,0,8.46.65.65,0,1,0,0,1.31,5.54,5.54,0,0,0,5.49-4.88h5.29a.65.65,0,0,0,0-1.31H32.24A5.54,5.54,0,0,0,26.74,53Z" transform="translate(0 -0.15)"/><path class="cls-11" d="M33.44,41.4a7.36,7.36,0,0,0-7.32,6.73,5.53,5.53,0,0,0-2,10.38,5.53,5.53,0,0,0,2,10.38,7.35,7.35,0,0,0,14.67-.62V48.75A7.36,7.36,0,0,0,33.44,41.4Zm6,13.36a6.05,6.05,0,0,1-5.39-6,.65.65,0,1,0-1.31,0,7.36,7.36,0,0,0,6.7,7.32V61a7.36,7.36,0,0,0-6.7,7.32.65.65,0,1,0,1.31,0,6.05,6.05,0,0,1,5.39-6v6a6,6,0,1,1-12.09,0,.65.65,0,0,0-.65-.65,4.23,4.23,0,0,1,0-8.46.65.65,0,1,0,0-1.31,4.23,4.23,0,0,1,0-8.46.65.65,0,0,0,.65-.65,6,6,0,1,1,12.09,0Z" transform="translate(0 -0.15)"/><path class="cls-9" d="M51.34,58.51a45.2,45.2,0,0,0-3-17,7.36,7.36,0,0,0-6.28,7.27V68.27a7.36,7.36,0,0,0,6.28,7.27A45.2,45.2,0,0,0,51.34,58.51Z" transform="translate(0 -0.15)"/><path class="cls-11" d="M56.14,62.74a4.23,4.23,0,0,1,0-8.46.65.65,0,1,0,0-1.31,5.54,5.54,0,0,0-5.49,4.88H45.36a.65.65,0,1,0,0,1.31h5.29A5.54,5.54,0,0,0,56.14,64a.65.65,0,0,0,0-1.31Z" transform="translate(0 -0.15)"/><path class="cls-11" d="M58.74,58.51a5.53,5.53,0,0,0-2-10.38,7.35,7.35,0,0,0-14.67.62V68.27a7.35,7.35,0,0,0,14.67.62,5.53,5.53,0,0,0,2-10.38Zm-2.61,9.11a.65.65,0,0,0-.65.65,6,6,0,1,1-12.09,0v-6a6.05,6.05,0,0,1,5.39,6,.65.65,0,1,0,1.31,0A7.36,7.36,0,0,0,43.4,61V56.07a7.36,7.36,0,0,0,6.7-7.32.65.65,0,0,0-1.31,0,6.05,6.05,0,0,1-5.39,6v-6a6,6,0,1,1,12.09,0,.65.65,0,0,0,.65.65,4.23,4.23,0,0,1,0,8.46.65.65,0,1,0,0,1.31,4.23,4.23,0,0,1,0,8.46Z" transform="translate(0 -0.15)"/></g></g></svg>