<svg xmlns="http://www.w3.org/2000/svg" xmlns:xlink="http://www.w3.org/1999/xlink" viewBox="0 0 582.06 93.85"><defs><style>.cls-1{fill:none;}.cls-2{fill:#1b5a89;}.cls-3{fill:#ffb000;}.cls-4{fill:#3e3f3f;}.cls-5{clip-path:url(#clip-path);}.cls-6{fill:#1d1e1e;}.cls-7{fill:#18456d;}.cls-8{fill:#0b3249;}.cls-9{fill:#1d7099;}.cls-10{fill:#ff9700;}.cls-11{fill:#fff;}</style><clipPath id="clip-path" transform="translate(0 -0.15)"><rect class="cls-1" width="82.85" height="92"/></clipPath></defs><title>logo_loja_inteligente</title><g id="Layer_2" data-name="Layer 2"><g id="Layer_1-2" data-name="Layer 1"><path class="cls-2" d="M91.51,26h9.56V66.1a4.71,4.71,0,0,0,1,3.21,3.59,3.59,0,0,0,2.85,1.14,7.16,7.16,0,0,0,1.89-.29,12.74,12.74,0,0,0,2-.71l1.28,7.28a18.45,18.45,0,0,1-4.5,1.43,24.58,24.58,0,0,1-4.64.5,9.57,9.57,0,0,1-7-2.39,9.06,9.06,0,0,1-2.46-6.81Z" transform="translate(0 -0.15)"/><path class="cls-2" d="M131.47,78.8a20.53,20.53,0,0,1-8.21-1.57A18.42,18.42,0,0,1,117.09,73a18.72,18.72,0,0,1-3.89-6.17,20.14,20.14,0,0,1-1.36-7.35A20.34,20.34,0,0,1,113.2,52a18.73,18.73,0,0,1,3.89-6.17,18.42,18.42,0,0,1,6.17-4.25,20.53,20.53,0,0,1,8.21-1.57,20.28,20.28,0,0,1,8.17,1.57,18.53,18.53,0,0,1,6.14,4.25A18.77,18.77,0,0,1,149.66,52,20.36,20.36,0,0,1,151,59.46a20.16,20.16,0,0,1-1.36,7.35A19.05,19.05,0,0,1,145.81,73a18,18,0,0,1-6.14,4.25A20.54,20.54,0,0,1,131.47,78.8Zm-9.78-19.34a13,13,0,0,0,.75,4.53,11.05,11.05,0,0,0,2.07,3.53,9.24,9.24,0,0,0,3.1,2.32,9.46,9.46,0,0,0,7.71,0,9.25,9.25,0,0,0,3.1-2.32A11,11,0,0,0,140.49,64a13.33,13.33,0,0,0,.75-4.57,13.11,13.11,0,0,0-.75-4.5,11,11,0,0,0-2.07-3.57,9.26,9.26,0,0,0-3.1-2.32,9.12,9.12,0,0,0-3.85-.82,8.78,8.78,0,0,0-3.85.86,9.68,9.68,0,0,0-3.1,2.35A11,11,0,0,0,122.44,55,13.12,13.12,0,0,0,121.69,59.46Z" transform="translate(0 -0.15)"/><path class="cls-2" d="M154.37,92.07a16,16,0,0,1-5.14-.82,12.55,12.55,0,0,1-4.35-2.53L149,82.23a5,5,0,0,0,1.93,1.18,7,7,0,0,0,2.28.39,4.45,4.45,0,0,0,3.21-1.32,4.53,4.53,0,0,0,1.36-3.39V40.7h9.56V78.37a15,15,0,0,1-1,5.53,13.21,13.21,0,0,1-2.75,4.35,12.22,12.22,0,0,1-4.14,2.82A13.11,13.11,0,0,1,154.37,92.07Zm3.43-56.58V26h9.56v9.49Z" transform="translate(0 -0.15)"/><path class="cls-2" d="M186.26,78.8a14.19,14.19,0,0,1-5.07-.89,12.18,12.18,0,0,1-4.07-2.5,11.63,11.63,0,0,1-2.68-3.75,11.35,11.35,0,0,1-1-4.71,10.37,10.37,0,0,1,1.18-4.89A11.21,11.21,0,0,1,178,58.25a16.29,16.29,0,0,1,5-2.46,21.94,21.94,0,0,1,6.42-.89,27.7,27.7,0,0,1,4.89.43,20,20,0,0,1,4.25,1.21V54.4a7.5,7.5,0,0,0-2.11-5.71q-2.11-2-6.24-2a16.53,16.53,0,0,0-5.85,1.07,27.17,27.17,0,0,0-5.85,3.14l-2.93-6.07a27.61,27.61,0,0,1,15.56-4.78q8.06,0,12.52,4t4.46,11.45V67.1a3.36,3.36,0,0,0,.54,2.14,2.34,2.34,0,0,0,1.75.71v8.13a21.35,21.35,0,0,1-4.21.5A6.37,6.37,0,0,1,202,77.37a5.21,5.21,0,0,1-1.82-3.21L200,72.09a16.55,16.55,0,0,1-6.07,5A17.42,17.42,0,0,1,186.26,78.8Zm2.71-7a12.46,12.46,0,0,0,4.6-.86A8.35,8.35,0,0,0,197,68.67,3.44,3.44,0,0,0,198.54,66V61.68a23.53,23.53,0,0,0-3.71-1,20,20,0,0,0-3.85-.39,10.22,10.22,0,0,0-6.07,1.68,5,5,0,0,0-2.35,4.25,5.1,5.1,0,0,0,1.86,4A6.73,6.73,0,0,0,189,71.81Z" transform="translate(0 -0.15)"/><path class="cls-3" d="M217,35.49V26h9.56v9.49Zm0,42.6V40.7h9.56V78.09Z" transform="translate(0 -0.15)"/><path class="cls-3" d="M270,78.09H260.4v-21q0-4.49-1.57-6.56a5.16,5.16,0,0,0-4.35-2.07,8.19,8.19,0,0,0-2.93.57,10.81,10.81,0,0,0-2.82,1.61,13.06,13.06,0,0,0-2.39,2.46,9.72,9.72,0,0,0-1.57,3.14V78.09h-9.56V40.7h8.63v6.92a14.16,14.16,0,0,1,6-5.57,19.23,19.23,0,0,1,8.85-2,11.27,11.27,0,0,1,5.71,1.28,9.29,9.29,0,0,1,3.43,3.35,14.07,14.07,0,0,1,1.68,4.71,30.92,30.92,0,0,1,.46,5.35Z" transform="translate(0 -0.15)"/><path class="cls-3" d="M300.36,76.16a42.8,42.8,0,0,1-4.71,1.71,19.8,19.8,0,0,1-5.85.86,13.6,13.6,0,0,1-3.75-.5A8.21,8.21,0,0,1,283,76.63a7.81,7.81,0,0,1-2.1-2.85,10.31,10.31,0,0,1-.78-4.25V48h-4.92V40.7h4.92V28.57h9.56V40.7h7.85V48h-7.85V66.32a3.4,3.4,0,0,0,1,2.82,3.94,3.94,0,0,0,2.53.82,8.78,8.78,0,0,0,2.93-.5q1.43-.5,2.28-.86Z" transform="translate(0 -0.15)"/><path class="cls-3" d="M321.76,78.8a20.75,20.75,0,0,1-8.13-1.53A18.35,18.35,0,0,1,303.46,67a19.69,19.69,0,0,1-1.39-7.35,20.82,20.82,0,0,1,1.36-7.53,18.36,18.36,0,0,1,3.92-6.21,18.72,18.72,0,0,1,6.24-4.25,20.79,20.79,0,0,1,8.24-1.57A20.28,20.28,0,0,1,330,41.63a18.81,18.81,0,0,1,6.14,4.21A17.92,17.92,0,0,1,340,52a20.46,20.46,0,0,1,1.32,7.28q0,.93,0,1.78a7.3,7.3,0,0,1-.18,1.43H312.2a11.1,11.1,0,0,0,1.07,3.92,9.61,9.61,0,0,0,5.28,4.78,10.07,10.07,0,0,0,3.57.64,11,11,0,0,0,5.39-1.39A7.37,7.37,0,0,0,331,66.74L339.17,69a16.69,16.69,0,0,1-6.6,7A20.46,20.46,0,0,1,321.76,78.8Zm9.7-22.55a10,10,0,0,0-3.1-6.74,9.74,9.74,0,0,0-13.24,0A9.8,9.8,0,0,0,313,52.47a10.3,10.3,0,0,0-1,3.78Z" transform="translate(0 -0.15)"/><path class="cls-3" d="M347.09,26h9.56V66.1a4.71,4.71,0,0,0,1,3.21,3.58,3.58,0,0,0,2.85,1.14,7.16,7.16,0,0,0,1.89-.29,12.74,12.74,0,0,0,2-.71l1.28,7.28a18.43,18.43,0,0,1-4.49,1.43,24.59,24.59,0,0,1-4.64.5,9.57,9.57,0,0,1-7-2.39,9.06,9.06,0,0,1-2.46-6.81Z" transform="translate(0 -0.15)"/><path class="cls-3" d="M369.78,35.49V26h9.56v9.49Zm0,42.6V40.7h9.56V78.09Z" transform="translate(0 -0.15)"/><path class="cls-3" d="M402.61,78.3a15.4,15.4,0,0,1-6.85-1.5,16.53,16.53,0,0,1-5.32-4.1,18.66,18.66,0,0,1-3.46-6A22.67,22.67,0,0,1,387,51.83a19.64,19.64,0,0,1,3.57-6.14,16.29,16.29,0,0,1,5.49-4.14,16.5,16.5,0,0,1,7.06-1.5,14.6,14.6,0,0,1,7.64,2,16.57,16.57,0,0,1,5.42,5.24V40.7h8.35V76.3A17,17,0,0,1,423,83.72a16.33,16.33,0,0,1-4.32,5.57,19.32,19.32,0,0,1-6.56,3.5A27.35,27.35,0,0,1,403.82,94a23.44,23.44,0,0,1-10.31-2,20.91,20.91,0,0,1-7.17-5.74l5.21-5.07a14.81,14.81,0,0,0,5.39,4.14,16.24,16.24,0,0,0,6.89,1.5,14.81,14.81,0,0,0,4.25-.61,10.26,10.26,0,0,0,3.6-1.89A8.81,8.81,0,0,0,414.13,81,11.47,11.47,0,0,0,415,76.3V71.6a12.62,12.62,0,0,1-5.21,5A15.35,15.35,0,0,1,402.61,78.3Zm3.21-7.63a9,9,0,0,0,3-.5,10.7,10.7,0,0,0,4.78-3.35A9.05,9.05,0,0,0,415,64.39V55.47a11.61,11.61,0,0,0-4-5.28,9.63,9.63,0,0,0-5.74-2,8.27,8.27,0,0,0-4,1,9.94,9.94,0,0,0-3.07,2.57,11.6,11.6,0,0,0-2,3.67,13.63,13.63,0,0,0-.68,4.28,11.6,11.6,0,0,0,.78,4.28,11,11,0,0,0,2.18,3.5,10.26,10.26,0,0,0,3.25,2.35A9.59,9.59,0,0,0,405.82,70.67Z" transform="translate(0 -0.15)"/><path class="cls-3" d="M450.55,78.8a20.75,20.75,0,0,1-8.13-1.53A18.34,18.34,0,0,1,432.25,67a19.68,19.68,0,0,1-1.39-7.35,20.82,20.82,0,0,1,1.36-7.53,18.36,18.36,0,0,1,3.92-6.21,18.74,18.74,0,0,1,6.24-4.25,20.79,20.79,0,0,1,8.24-1.57,20.28,20.28,0,0,1,8.17,1.57,18.81,18.81,0,0,1,6.14,4.21A17.91,17.91,0,0,1,468.78,52a20.45,20.45,0,0,1,1.32,7.28q0,.93,0,1.78a7.35,7.35,0,0,1-.18,1.43H441a11.08,11.08,0,0,0,1.07,3.92,9.61,9.61,0,0,0,5.28,4.78,10.06,10.06,0,0,0,3.57.64,11,11,0,0,0,5.39-1.39,7.37,7.37,0,0,0,3.46-3.67L468,69a16.69,16.69,0,0,1-6.6,7A20.46,20.46,0,0,1,450.55,78.8Zm9.7-22.55a9.94,9.94,0,0,0-3.1-6.74,9.74,9.74,0,0,0-13.24,0,9.78,9.78,0,0,0-2.11,2.93,10.29,10.29,0,0,0-1,3.78Z" transform="translate(0 -0.15)"/><path class="cls-3" d="M510.71,78.09h-9.56v-21q0-4.49-1.57-6.56a5.16,5.16,0,0,0-4.35-2.07,8.19,8.19,0,0,0-2.92.57,10.81,10.81,0,0,0-2.82,1.61,13.07,13.07,0,0,0-2.39,2.46,9.71,9.71,0,0,0-1.57,3.14V78.09H476V40.7h8.63v6.92a14.16,14.16,0,0,1,6-5.57,19.23,19.23,0,0,1,8.85-2,11.27,11.27,0,0,1,5.71,1.28,9.3,9.3,0,0,1,3.43,3.35,14,14,0,0,1,1.68,4.71,30.87,30.87,0,0,1,.46,5.35Z" transform="translate(0 -0.15)"/><path class="cls-3" d="M541.1,76.16a42.83,42.83,0,0,1-4.71,1.71,19.8,19.8,0,0,1-5.85.86,13.61,13.61,0,0,1-3.75-.5,8.19,8.19,0,0,1-3.07-1.61,7.82,7.82,0,0,1-2.11-2.85,10.31,10.31,0,0,1-.79-4.25V48h-4.92V40.7h4.92V28.57h9.56V40.7h7.85V48H530.4V66.32a3.4,3.4,0,0,0,1,2.82A3.94,3.94,0,0,0,534,70a8.79,8.79,0,0,0,2.93-.5q1.42-.5,2.28-.86Z" transform="translate(0 -0.15)"/><path class="cls-3" d="M562.51,78.8a20.75,20.75,0,0,1-8.13-1.53A18.34,18.34,0,0,1,544.21,67a19.68,19.68,0,0,1-1.39-7.35,20.82,20.82,0,0,1,1.36-7.53,18.36,18.36,0,0,1,3.92-6.21,18.74,18.74,0,0,1,6.24-4.25,20.79,20.79,0,0,1,8.24-1.57,20.28,20.28,0,0,1,8.17,1.57,18.81,18.81,0,0,1,6.14,4.21A17.91,17.91,0,0,1,580.74,52a20.45,20.45,0,0,1,1.32,7.28q0,.93,0,1.78a7.35,7.35,0,0,1-.18,1.43h-28.9A11.08,11.08,0,0,0,554,66.39a9.61,9.61,0,0,0,5.28,4.78,10.06,10.06,0,0,0,3.57.64,11,11,0,0,0,5.39-1.39,7.37,7.37,0,0,0,3.46-3.67l8.2,2.28a16.69,16.69,0,0,1-6.6,7A20.46,20.46,0,0,1,562.51,78.8Zm9.7-22.55a9.94,9.94,0,0,0-3.1-6.74,9.74,9.74,0,0,0-13.24,0,9.78,9.78,0,0,0-2.11,2.93,10.29,10.29,0,0,0-1,3.78Z" transform="translate(0 -0.15)"/><path class="cls-4" d="M46.6,32.7h-.45a2.87,2.87,0,0,1-2.41-3.31L46,16A10,10,0,0,0,35.9,6,10.26,10.26,0,0,0,25.66,16.28v.45L23.24,30.29a2.94,2.94,0,0,1-3.47,2.41,3.12,3.12,0,0,1-2.41-3.31L19.63,16a16.2,16.2,0,0,1,32.4.15v.45L49.62,30.14a2.93,2.93,0,0,1-3,2.56Zm0,0" transform="translate(0 -0.15)"/><g class="cls-5"><path class="cls-6" d="M46.15,32.7h.45a2.91,2.91,0,0,0,2.86-2.41l2.11-11.9a16.15,16.15,0,0,0-31.95,3L17.82,31.65a3,3,0,0,0,1.81,1.2,2.94,2.94,0,0,0,3.47-2.41l2.41-13.56v-.45A10.25,10.25,0,0,1,46,16.12l-.45,2.71A8.79,8.79,0,0,1,46,21.7L44.19,31.8a7.74,7.74,0,0,0,2,.9Zm0,0" transform="translate(0 -0.15)"/><path class="cls-7" d="M82.77,87.25,74.63,27.58A3.71,3.71,0,0,0,71,24.41H11.94a3.6,3.6,0,0,0-3.62,3.16L0,87.71a3.33,3.33,0,0,0,.9,2.86,3.77,3.77,0,0,0,2.71,1.21h75.5a3.67,3.67,0,0,0,3.62-3.62,1,1,0,0,0,0-.9Zm0,0" transform="translate(0 -0.15)"/></g><path class="cls-8" d="M76.29,40.39l-13-13-3.92,3.92L72.67,68.72Zm0,0" transform="translate(0 -0.15)"/><path class="cls-8" d="M61.67,52.14,57.75,82.43,32.89,31.34,37,27.43Zm0,0" transform="translate(0 -0.15)"/><g class="cls-5"><path class="cls-8" d="M22.79,91.77H79.15a3.67,3.67,0,0,0,3.62-3.62,1.91,1.91,0,0,0-.15-.9l-8-59.68A3.71,3.71,0,0,0,71,24.41" transform="translate(0 -0.15)"/><path class="cls-9" d="M24.3,88.16a1.91,1.91,0,0,0-.15-.9L15.86,27.58a3.71,3.71,0,0,0-3.62-3.16h-.3a3.6,3.6,0,0,0-3.62,3.16L0,87.71a3.33,3.33,0,0,0,.9,2.86,3.77,3.77,0,0,0,2.71,1.21H20.53a3.61,3.61,0,0,0,3.77-3.62Zm0,0" transform="translate(0 -0.15)"/></g><path class="cls-2" d="M.94,90.57a3.77,3.77,0,0,0,2.71,1.21H20.53a3.67,3.67,0,0,0,3.62-3.62,1.92,1.92,0,0,0-.15-.9L15.86,27.58a3.71,3.71,0,0,0-3.62-3.16h-.3" transform="translate(0 -0.15)"/><path class="cls-2" d="M61.52,32.7a2.91,2.91,0,0,1-2.86-2.41L56.25,16.73v-.45A10.25,10.25,0,0,0,35.75,16L38,29.39a3,3,0,0,1-5.88,1.06L29.72,16.88v-.45A16.13,16.13,0,0,1,62,16.12l2.26,13.41A2.94,2.94,0,0,1,61.82,33c0-.3-.15-.3-.3-.3Zm0,0" transform="translate(0 -0.15)"/><path class="cls-7" d="M62.12,16.12a16.12,16.12,0,0,0-31.19,5.73v.45L32.44,31A2.84,2.84,0,0,0,35.6,32.7,2.94,2.94,0,0,0,38,29.24L35.75,15.82a10.25,10.25,0,0,1,20.49.3v.45l.15,1.05a9.45,9.45,0,0,1,.9,4.07v.45l1.51,8.74a2.85,2.85,0,0,0,2.71,1.66H62a2.94,2.94,0,0,0,2.41-3.47Zm0,0" transform="translate(0 -0.15)"/><path class="cls-10" d="M58.74,58.51a5.53,5.53,0,0,0-2-10.38,7.35,7.35,0,0,0-14.67.62V68.27a7.35,7.35,0,0,0,14.67.62,5.53,5.53,0,0,0,2-10.38Z" transform="translate(0 -0.15)"/><path class="cls-3" d="M24.1,58.51a5.53,5.53,0,0,0,2,10.38,7.35,7.35,0,0,0,14.67-.62V48.75a7.35,7.35,0,0,0-14.67-.62,5.53,5.53,0,0,0-2,10.38Z" transform="translate(0 -0.15)"/><path class="cls-10" d="M36.72,43.26c-3.1,3.1-6.82,7.13-7.44,15.19a37.26,37.26,0,0,0,2.79,17c3.55-.52,8.68-3.54,8.68-7.23V48.75C40.75,45.06,38,44.19,36.72,43.26Z" transform="translate(0 -0.15)"/><path class="cls-11" d="M26.74,53a.65.65,0,1,0,0,1.31,4.23,4.23,0,0,1,0,8.46.65.65,0,1,0,0,1.31,5.54,5.54,0,0,0,5.49-4.88h5.29a.65.65,0,0,0,0-1.31H32.24A5.54,5.54,0,0,0,26.74,53Z" transform="translate(0 -0.15)"/><path class="cls-11" d="M33.44,41.4a7.36,7.36,0,0,0-7.32,6.73,5.53,5.53,0,0,0-2,10.38,5.53,5.53,0,0,0,2,10.38,7.35,7.35,0,0,0,14.67-.62V48.75A7.36,7.36,0,0,0,33.44,41.4Zm6,13.36a6.05,6.05,0,0,1-5.39-6,.65.65,0,1,0-1.31,0,7.36,7.36,0,0,0,6.7,7.32V61a7.36,7.36,0,0,0-6.7,7.32.65.65,0,1,0,1.31,0,6.05,6.05,0,0,1,5.39-6v6a6,6,0,1,1-12.09,0,.65.65,0,0,0-.65-.65,4.23,4.23,0,0,1,0-8.46.65.65,0,1,0,0-1.31,4.23,4.23,0,0,1,0-8.46.65.65,0,0,0,.65-.65,6,6,0,1,1,12.09,0Z" transform="translate(0 -0.15)"/><path class="cls-10" d="M51.34,58.51a45.2,45.2,0,0,0-3-17,7.36,7.36,0,0,0-6.28,7.27V68.27a7.36,7.36,0,0,0,6.28,7.27A45.2,45.2,0,0,0,51.34,58.51Z" transform="translate(0 -0.15)"/><path class="cls-11" d="M56.14,62.74a4.23,4.23,0,0,1,0-8.46.65.65,0,1,0,0-1.31,5.54,5.54,0,0,0-5.49,4.88H45.36a.65.65,0,1,0,0,1.31h5.29A5.54,5.54,0,0,0,56.14,64a.65.65,0,0,0,0-1.31Z" transform="translate(0 -0.15)"/><path class="cls-11" d="M58.74,58.51a5.53,5.53,0,0,0-2-10.38,7.35,7.35,0,0,0-14.67.62V68.27a7.35,7.35,0,0,0,14.67.62,5.53,5.53,0,0,0,2-10.38Zm-2.61,9.11a.65.65,0,0,0-.65.65,6,6,0,1,1-12.09,0v-6a6.05,6.05,0,0,1,5.39,6,.65.65,0,1,0,1.31,0A7.36,7.36,0,0,0,43.4,61V56.07a7.36,7.36,0,0,0,6.7-7.32.65.65,0,0,0-1.31,0,6.05,6.05,0,0,1-5.39,6v-6a6,6,0,1,1,12.09,0,.65.65,0,0,0,.65.65,4.23,4.23,0,0,1,0,8.46.65.65,0,1,0,0,1.31,4.23,4.23,0,0,1,0,8.46Z" transform="translate(0 -0.15)"/></g></g></svg>