<?xml version="1.0" encoding="utf-8"?>
<!-- Generator: Adobe Illustrator 21.0.0, SVG Export Plug-In . SVG Version: 6.00 Build 0)  -->
<!DOCTYPE svg PUBLIC "-//W3C//DTD SVG 1.1//EN" "http://www.w3.org/Graphics/SVG/1.1/DTD/svg11.dtd">
<svg version="1.1" id="Layer_1" xmlns="http://www.w3.org/2000/svg" xmlns:xlink="http://www.w3.org/1999/xlink" x="0px" y="0px"
	 viewBox="0 0 185.9 35.3" style="enable-background:new 0 0 185.9 35.3;" xml:space="preserve">
<style type="text/css">
	.st0{clip-path:url(#SVGID_2_);}
	.st1{clip-path:url(#SVGID_4_);}
	.st2{fill:#1B5A89;}
	.st3{fill:#FFB000;}
	.st4{clip-path:url(#SVGID_2_);fill:#FFFFFF;}
	.st5{font-family:'Montserrat-Regular';}
	.st6{font-size:8px;}
</style>
<title>logo-lojainteligente</title>
<g>
	<g>
		<g id="Layer_2">
			<g id="Layer_2-2">
				<defs>
					<rect id="SVGID_1_" y="9.5" width="185.9" height="25.8"/>
				</defs>
				<clipPath id="SVGID_2_">
					<use xlink:href="#SVGID_1_"  style="overflow:visible;"/>
				</clipPath>
				<g id="Logo_LojaInteligente_White" class="st0">
					<g>
						<defs>
							<rect id="SVGID_3_" y="9.5" width="185.9" height="25.8"/>
						</defs>
						<clipPath id="SVGID_4_">
							<use xlink:href="#SVGID_3_"  style="overflow:visible;"/>
						</clipPath>
						<g class="st1">
							<path class="st2" d="M0,9.5h3.6v15.2c0,0.4,0.1,0.9,0.4,1.2c0.3,0.3,0.7,0.5,1.1,0.4c0.2,0,0.5,0,0.7-0.1
								c0.3-0.1,0.5-0.1,0.7-0.2L7,28.7c-0.5,0.3-1.1,0.4-1.7,0.5c-0.6,0.1-1.2,0.2-1.8,0.2c-1,0.1-1.9-0.3-2.6-0.9
								c-0.6-0.7-1-1.6-0.9-2.5V9.5z"/>
							<path class="st2" d="M15.1,29.5c-1.1,0-2.1-0.2-3.1-0.6c-0.9-0.4-1.7-0.9-2.3-1.6c-0.6-0.7-1.1-1.4-1.5-2.3
								c-0.7-1.8-0.7-3.8,0-5.6C8.5,18.5,9,17.7,9.7,17c0.7-0.7,1.4-1.2,2.3-1.6c1-0.4,2-0.6,3.1-0.6c1.1,0,2.1,0.2,3.1,0.6
								c0.9,0.4,1.7,0.9,2.4,1.6c0.6,0.7,1.1,1.5,1.4,2.4c0.7,1.8,0.7,3.8,0,5.6c-0.3,0.9-0.8,1.7-1.5,2.3c-0.7,0.7-1.4,1.2-2.3,1.6
								C17.2,29.4,16.2,29.6,15.1,29.5 M11.4,22.2c0,0.6,0.1,1.2,0.3,1.7c0.2,0.5,0.4,0.9,0.8,1.3c0.3,0.4,0.7,0.7,1.2,0.9
								c0.9,0.4,2,0.4,2.9,0c0.5-0.2,0.9-0.5,1.2-0.9c0.3-0.4,0.6-0.9,0.8-1.4c0.2-0.6,0.3-1.1,0.3-1.7c0-0.6-0.1-1.2-0.3-1.7
								c-0.2-0.5-0.4-1-0.8-1.4c-0.3-0.4-0.7-0.7-1.2-0.9c-0.5-0.2-1-0.3-1.5-0.3c-0.5,0-1,0.1-1.5,0.3c-0.4,0.2-0.9,0.5-1.2,0.9
								c-0.3,0.4-0.6,0.9-0.8,1.4C11.5,21.1,11.4,21.6,11.4,22.2"/>
							<path class="st2" d="M23.8,34.5c-0.7,0-1.3-0.1-2-0.3c-0.6-0.2-1.2-0.6-1.6-1l1.6-2.4c0.2,0.2,0.5,0.4,0.7,0.5
								c0.3,0.1,0.6,0.1,0.9,0.1c0.5,0,0.9-0.2,1.2-0.5c0.3-0.3,0.5-0.8,0.5-1.3V15.1h3.6v14.3c0,0.7-0.1,1.4-0.4,2.1
								c-0.2,0.6-0.6,1.2-1,1.6c-0.4,0.5-1,0.8-1.6,1.1C25.2,34.4,24.5,34.5,23.8,34.5 M25.2,9.5h3.6v3.6h-3.7L25.2,9.5z"/>
							<path class="st2" d="M35.9,29.5c-0.7,0-1.3-0.1-1.9-0.3c-0.6-0.2-1.1-0.5-1.5-1c-0.4-0.4-0.8-0.9-1-1.4
								c-0.3-0.6-0.4-1.2-0.4-1.8c0-0.6,0.2-1.3,0.5-1.9c0.3-0.6,0.7-1.1,1.2-1.5c0.6-0.4,1.2-0.7,1.9-0.9c0.8-0.2,1.6-0.3,2.4-0.3
								c0.6,0,1.2,0.1,1.8,0.2c0.6,0.1,1.1,0.2,1.6,0.5v-0.8c0.1-0.8-0.2-1.6-0.8-2.2c-0.7-0.6-1.5-0.8-2.4-0.8
								c-0.8,0-1.5,0.1-2.2,0.4c-0.8,0.3-1.5,0.7-2.2,1.2l-1.1-2.3c1.7-1.2,3.8-1.8,5.9-1.8c1.7-0.1,3.4,0.4,4.8,1.5
								c1.2,1.1,1.8,2.7,1.7,4.3v4.4c0,0.3,0,0.6,0.2,0.8c0.2,0.2,0.4,0.3,0.7,0.3v3.1c-0.5,0.1-1.1,0.2-1.6,0.2
								c-0.6,0.1-1.1-0.1-1.6-0.4c-0.4-0.3-0.6-0.7-0.7-1.2L41.1,27c-0.6,0.8-1.4,1.5-2.3,1.9C37.9,29.3,36.9,29.5,35.9,29.5
								 M36.9,26.9c0.6,0,1.2-0.1,1.7-0.3c0.5-0.2,1-0.5,1.3-0.9c0.3-0.2,0.6-0.6,0.6-1V23c-0.5-0.2-0.9-0.3-1.4-0.4
								c-0.5-0.1-1-0.1-1.5-0.1c-0.8,0-1.6,0.2-2.3,0.6c-0.6,0.3-0.9,1-0.9,1.6c0,0.6,0.2,1.2,0.7,1.5
								C35.7,26.7,36.3,26.9,36.9,26.9"/>
							<path class="st3" d="M47.6,9.5h3.6v3.6h-3.6V9.5z M47.6,15.1h3.6v14.2h-3.6V15.1z"/>
							<path class="st3" d="M67.6,29.2H64v-8c0.1-0.9-0.1-1.7-0.6-2.5c-0.4-0.5-1-0.8-1.7-0.7c-0.4,0-0.8,0.1-1.1,0.2
								c-0.4,0.1-0.7,0.4-1.1,0.6c-0.3,0.3-0.6,0.6-0.9,0.9c-0.3,0.4-0.5,0.8-0.6,1.2v8.3h-3.6V15.1h3.3v2.6
								c0.5-0.9,1.3-1.6,2.3-2.1c1-0.5,2.2-0.8,3.3-0.8c0.8,0,1.5,0.1,2.2,0.5c0.5,0.3,1,0.7,1.3,1.3c0.3,0.6,0.5,1.2,0.6,1.8
								c0.1,0.7,0.2,1.3,0.2,2L67.6,29.2z"/>
							<path class="st3" d="M79.2,28.5c-0.6,0.3-1.2,0.5-1.8,0.6c-0.7,0.2-1.5,0.3-2.2,0.3c-0.5,0-1-0.1-1.4-0.2
								c-0.4-0.1-0.8-0.3-1.2-0.6c-0.3-0.3-0.6-0.7-0.8-1.1c-0.2-0.5-0.3-1.1-0.3-1.6v-8.1h-1.9v-2.8h1.9v-4.6h3.6v4.6h3v2.8h-3v6.9
								c0,0.4,0.1,0.8,0.4,1.1c0.3,0.2,0.6,0.3,1,0.3c0.4,0,0.7,0,1.1-0.2l0.9-0.3L79.2,28.5z"/>
							<path class="st3" d="M87.3,29.5c-1.1,0-2.1-0.2-3.1-0.6c-1.8-0.7-3.2-2.1-3.8-3.9c-0.4-0.9-0.5-1.8-0.5-2.8
								c0-1,0.2-1.9,0.5-2.9c0.3-0.9,0.8-1.7,1.5-2.4c0.7-0.7,1.5-1.2,2.4-1.6c1-0.4,2.1-0.6,3.1-0.6c1.1,0,2.1,0.2,3.1,0.6
								c0.9,0.4,1.7,0.9,2.3,1.6c0.6,0.7,1.1,1.5,1.5,2.3c0.3,0.9,0.5,1.8,0.5,2.8c0,0.2,0,0.5,0,0.7c0,0.2,0,0.4-0.1,0.5h-11
								c0,0.5,0.2,1,0.4,1.5c0.2,0.4,0.5,0.8,0.8,1.1c0.3,0.3,0.7,0.5,1.2,0.7c0.4,0.2,0.9,0.2,1.3,0.2c0.7,0,1.4-0.2,2-0.5
								c0.6-0.3,1.1-0.8,1.3-1.4l3.1,0.9c-0.6,1.1-1.4,2-2.5,2.7C90,29.2,88.6,29.5,87.3,29.5 M90.9,21c0-1-0.5-1.9-1.2-2.6
								c-1.1-0.9-2.6-1.2-3.9-0.7c-0.4,0.2-0.8,0.4-1.1,0.7c-0.3,0.3-0.6,0.7-0.8,1.1c-0.2,0.4-0.3,0.9-0.4,1.4H90.9z"/>
							<path class="st3" d="M96.9,9.5h3.6v15.2c0,0.4,0.1,0.9,0.4,1.2c0.3,0.3,0.7,0.5,1.1,0.4c0.2,0,0.5,0,0.7-0.1
								c0.3-0.1,0.5-0.2,0.7-0.3l0.5,2.8c-0.5,0.3-1.1,0.4-1.7,0.5c-0.6,0.1-1.2,0.2-1.8,0.2c-1,0.1-1.9-0.3-2.6-0.9
								c-0.6-0.7-1-1.6-0.9-2.5V9.5z"/>
							<path class="st3" d="M105.5,9.5h3.6v3.6h-3.6V9.5z M105.5,15.1h3.6v14.2h-3.6V15.1z"/>
							<path class="st3" d="M117.9,29.3c-0.9,0-1.8-0.2-2.6-0.6c-0.8-0.4-1.4-0.9-2-1.6c-0.6-0.7-1-1.4-1.3-2.3
								c-0.6-1.8-0.6-3.8,0-5.6c0.3-0.8,0.8-1.6,1.4-2.3c0.6-0.7,1.3-1.2,2.1-1.6c0.8-0.4,1.8-0.6,2.7-0.6c1,0,2,0.2,2.9,0.7
								c0.8,0.5,1.5,1.2,2.1,2v-2.5h3.2v13.5c0,1-0.2,1.9-0.6,2.8c-0.4,0.8-0.9,1.5-1.6,2.1c-0.7,0.6-1.6,1.1-2.5,1.3
								c-1,0.3-2.1,0.5-3.2,0.5c-1.3,0-2.7-0.2-3.9-0.8c-1.1-0.5-2-1.3-2.7-2.2l2-1.9c0.5,0.7,1.2,1.2,2,1.6
								c0.8,0.4,1.7,0.6,2.6,0.6c0.6,0,1.1-0.1,1.7-0.2c0.5-0.1,1-0.4,1.4-0.7c0.4-0.3,0.7-0.8,0.9-1.2c0.2-0.6,0.4-1.2,0.3-1.8
								v-1.8c-0.5,0.8-1.2,1.5-2,1.9C119.8,29.1,118.9,29.3,117.9,29.3 M119.1,26.4c0.4,0,0.8-0.1,1.1-0.2c0.7-0.2,1.3-0.7,1.8-1.2
								c0.2-0.3,0.4-0.6,0.5-0.9v-3.4c-0.3-0.8-0.8-1.5-1.5-2c-0.6-0.5-1.4-0.7-2.2-0.8c-0.5,0-1,0.1-1.5,0.4
								c-0.5,0.3-0.8,0.6-1.2,1c-0.3,0.4-0.6,0.9-0.7,1.4c-0.2,0.5-0.3,1.1-0.3,1.6c0,0.6,0.1,1.1,0.3,1.6c0.2,0.5,0.5,0.9,0.8,1.3
								c0.3,0.4,0.8,0.7,1.2,0.9C118.1,26.3,118.6,26.4,119.1,26.4"/>
							<path class="st3" d="M136.1,29.5c-1.1,0-2.1-0.2-3.1-0.6c-1.8-0.7-3.2-2.1-3.9-3.9c-0.4-0.9-0.5-1.8-0.5-2.8
								c0-1,0.2-1.9,0.5-2.9c0.3-0.9,0.8-1.7,1.5-2.4c0.7-0.7,1.5-1.2,2.4-1.6c1-0.4,2.1-0.6,3.1-0.6c1.1,0,2.1,0.2,3.1,0.6
								c0.9,0.4,1.7,0.9,2.3,1.6c0.6,0.7,1.1,1.5,1.4,2.3c0.3,0.9,0.5,1.8,0.5,2.8c0,0.2,0,0.5,0,0.7c0,0.2,0,0.4-0.1,0.5h-11
								c0,0.5,0.2,1,0.4,1.5c0.2,0.4,0.5,0.8,0.8,1.1c0.3,0.3,0.7,0.5,1.2,0.7c0.4,0.2,0.9,0.2,1.4,0.2c0.7,0,1.4-0.2,2-0.5
								c0.6-0.3,1.1-0.8,1.3-1.4l3.1,0.9c-0.6,1.1-1.4,2-2.5,2.7C138.9,29.2,137.4,29.5,136.1,29.5 M139.8,21c0-1-0.5-1.9-1.2-2.6
								c-1.1-0.9-2.6-1.2-3.9-0.7c-0.4,0.2-0.8,0.4-1.1,0.7c-0.3,0.3-0.6,0.7-0.8,1.1c-0.2,0.4-0.3,0.9-0.4,1.4H139.8z"/>
							<path class="st3" d="M158.9,29.2h-3.6v-8c0.1-0.9-0.1-1.7-0.6-2.5c-0.4-0.5-1-0.8-1.6-0.7c-0.4,0-0.8,0.1-1.1,0.2
								c-0.4,0.1-0.7,0.4-1.1,0.6c-0.3,0.3-0.6,0.6-0.9,0.9c-0.3,0.4-0.5,0.8-0.6,1.2v8.3h-3.6V15.1h3.3v2.6
								c0.5-0.9,1.3-1.6,2.3-2.1c1-0.5,2.2-0.8,3.4-0.8c0.8,0,1.5,0.1,2.2,0.5c0.5,0.3,1,0.7,1.3,1.3c0.3,0.6,0.5,1.2,0.6,1.8
								c0.1,0.7,0.2,1.3,0.2,2L158.9,29.2z"/>
							<path class="st3" d="M170.4,28.5c-0.6,0.3-1.2,0.5-1.8,0.6c-0.7,0.2-1.5,0.3-2.2,0.3c-0.5,0-1-0.1-1.4-0.2
								c-0.4-0.1-0.8-0.3-1.2-0.6c-0.3-0.3-0.6-0.7-0.8-1.1c-0.2-0.5-0.3-1.1-0.3-1.6v-8.1h-1.9v-2.8h1.9v-4.6h3.6v4.6h3v2.8h-3v6.9
								c0,0.4,0.1,0.8,0.4,1.1c0.3,0.2,0.6,0.3,1,0.3c0.4,0,0.8-0.1,1.1-0.2l0.9-0.3L170.4,28.5z"/>
							<path class="st3" d="M178.5,29.5c-1.1,0-2.1-0.2-3.1-0.6c-1.8-0.7-3.2-2.1-3.8-3.9c-0.4-0.9-0.5-1.8-0.5-2.8
								c0-1,0.2-1.9,0.5-2.9c0.3-0.9,0.8-1.7,1.4-2.4c0.7-0.7,1.5-1.2,2.4-1.6c1-0.4,2.1-0.6,3.1-0.6c1.1,0,2.1,0.2,3.1,0.6
								c0.9,0.4,1.7,0.9,2.4,1.6c0.6,0.7,1.1,1.5,1.5,2.3c0.3,0.9,0.5,1.8,0.5,2.8c0,0.2,0,0.5,0,0.7c0,0.2,0,0.4-0.1,0.5h-11
								c0,0.5,0.2,1,0.4,1.5c0.2,0.4,0.5,0.8,0.8,1.1c0.3,0.3,0.7,0.5,1.2,0.7c0.4,0.2,0.9,0.2,1.4,0.2c0.7,0,1.4-0.2,2-0.5
								c0.6-0.3,1.1-0.8,1.3-1.4l3.1,0.9c-0.6,1.1-1.4,2-2.5,2.7C181.4,29.2,179.9,29.5,178.5,29.5 M182.2,21c0-1-0.5-1.9-1.2-2.6
								c-1.1-0.9-2.6-1.2-3.9-0.7c-0.4,0.2-0.8,0.4-1.1,0.7c-0.3,0.3-0.6,0.7-0.8,1.1c-0.2,0.4-0.3,0.9-0.4,1.4L182.2,21z"/>
						</g>
					</g>
				</g>
				<path class="st4" d="M11,4.4H7.7c0,0.3,0.2,0.6,0.4,0.8C8.3,5.4,8.7,5.5,9,5.5c0.5,0,0.9-0.2,1.2-0.5l0.5,0.6
					C10.3,6,9.6,6.3,8.9,6.2C8.4,6.3,7.8,6,7.4,5.6C7,5.2,6.7,4.6,6.7,4c0-0.6,0.2-1.2,0.7-1.6c0.4-0.4,1-0.6,1.5-0.6
					c0.5,0,1.1,0.2,1.5,0.5C10.8,2.7,11,3.2,11,3.8V4.4z M7.7,3.7h2.5c0-0.3-0.1-0.6-0.3-0.8C9.6,2.7,9.3,2.6,9,2.6
					c-0.3,0-0.6,0.1-0.9,0.3C7.8,3,7.7,3.4,7.7,3.7z"/>
				<path class="st4" d="M15.1,4.9c0,0.4-0.2,0.8-0.4,1c-0.3,0.3-0.7,0.4-1.1,0.4c-0.3,0-0.7-0.1-1-0.2c-0.3-0.1-0.6-0.3-0.9-0.5
					l0.4-0.7c0.4,0.3,0.9,0.5,1.5,0.6c0.2,0,0.3,0,0.5-0.2c0.1-0.1,0.2-0.2,0.2-0.4c0-0.2-0.3-0.4-0.9-0.6h-0.1
					c-0.9-0.2-1.3-0.7-1.3-1.3c0-0.4,0.2-0.8,0.5-1c0.4-0.3,0.8-0.4,1.2-0.4c0.5,0,1,0.2,1.4,0.5l-0.3,0.7c-0.3-0.2-0.7-0.4-1.1-0.3
					c-0.2,0-0.4,0-0.5,0.1c-0.1,0.1-0.2,0.2-0.2,0.3c0,0.1,0.1,0.3,0.2,0.3c0.1,0.1,0.3,0.1,0.4,0.1l0.5,0.1l0.4,0.2
					c0.1,0.1,0.3,0.1,0.4,0.2C15,4.2,15.2,4.5,15.1,4.9z"/>
				<path class="st4" d="M5.1,1.2C5.7,1.8,6,2.5,5.9,3.3c0,0.8-0.3,1.5-0.8,2.1C4.4,6,3.6,6.2,2.7,6.2H0.8V0.5h2
					C3.6,0.4,4.4,0.7,5.1,1.2z M4.9,3.3c0-1.3-0.7-2-2.2-2h-1v3.9h1.1c0.6,0.1,1.1-0.1,1.6-0.4C4.8,4.4,5,3.9,4.9,3.3z"/>
				<path class="st4" d="M22.1,3.8v2.3h-0.9V1.9h0.9v0.8c0.5-0.8,1.5-1.1,2.3-0.6c0.1,0.1,0.2,0.1,0.3,0.2C25,2.6,25.2,3,25.2,3.5
					v2.7h-0.9V3.8c0-0.8-0.3-1.2-1-1.2c-0.3,0-0.6,0.1-0.8,0.3C22.2,3.2,22.1,3.5,22.1,3.8z"/>
				<path class="st4" d="M20.2,4.4h-3.4c0,0.3,0.2,0.6,0.4,0.8c0.7,0.5,1.6,0.4,2.1-0.2l0.5,0.6c-0.5,0.5-1.1,0.7-1.8,0.7
					c-0.6,0-1.1-0.2-1.5-0.6c-0.4-0.4-0.7-1-0.7-1.6c0-0.6,0.2-1.2,0.7-1.6c0.4-0.4,1-0.6,1.5-0.6c0.5,0,1.1,0.2,1.5,0.5
					c0.4,0.4,0.6,0.9,0.6,1.5L20.2,4.4z M16.8,3.7h2.5c0-0.3-0.1-0.6-0.3-0.8c-0.2-0.2-0.5-0.3-0.8-0.3c-0.3,0-0.6,0.1-0.9,0.3
					C16.9,3.1,16.8,3.4,16.8,3.7z"/>
				<path class="st4" d="M27.5,6.2l-1.7-4.3h0.9l1.3,3.3l1.3-3.3h0.9l-1.7,4.3H27.5z"/>
				<path class="st4" d="M37.2,6.2h-0.9v-6h0.9V6.2z"/>
				<path class="st4" d="M34.6,5.6c-0.9,0.9-2.3,0.9-3.2,0c-0.4-0.4-0.7-1-0.6-1.6c0-0.6,0.2-1.2,0.6-1.6c0.9-0.9,2.3-0.9,3.2,0
					c0.4,0.4,0.7,1,0.7,1.6C35.3,4.6,35,5.2,34.6,5.6z M32,5c0.5,0.6,1.4,0.6,2,0c0,0,0,0,0,0c0.3-0.3,0.4-0.6,0.4-1
					c0-0.4-0.1-0.7-0.4-1c-0.5-0.6-1.4-0.6-2,0c0,0,0,0,0,0c-0.3,0.3-0.4,0.6-0.4,1C31.6,4.4,31.7,4.7,32,5z"/>
				<path class="st4" d="M39.7,6.2l-1.7-4.3h0.9l1.3,3.3l1.3-3.3h0.9l-1.7,4.3H39.7z"/>
				<path class="st4" d="M45.7,5.6c-0.4-0.4-0.6-1-0.6-1.6c0-0.6,0.2-1.2,0.6-1.6c0.4-0.4,0.9-0.6,1.5-0.6c0.6,0,1.1,0.3,1.4,0.7
					V0.1h0.9v6h-0.9V5.5c-0.3,0.5-0.9,0.7-1.5,0.7C46.6,6.2,46.1,6,45.7,5.6z M46,4c0,0.4,0.1,0.7,0.4,1c0.2,0.3,0.6,0.4,0.9,0.4
					c0.3,0,0.7-0.1,0.9-0.4c0.2-0.3,0.4-0.6,0.4-1c0-0.4-0.1-0.7-0.4-1c-0.2-0.3-0.6-0.4-0.9-0.4c-0.4,0-0.7,0.1-0.9,0.4
					C46.1,3.3,46,3.6,46,4z"/>
				<path class="st4" d="M54.5,5.6c-0.9,0.9-2.3,0.9-3.2,0c-0.4-0.4-0.7-1-0.7-1.6c0-0.6,0.2-1.2,0.7-1.6c0.9-0.9,2.3-0.9,3.2,0
					c0.4,0.4,0.7,1,0.6,1.6C55.1,4.6,54.9,5.2,54.5,5.6z M51.9,5c0.5,0.6,1.4,0.6,2,0c0,0,0,0,0,0c0.3-0.3,0.4-0.6,0.4-1
					c0-0.4-0.1-0.7-0.4-1c-0.5-0.6-1.4-0.6-2,0c0,0,0,0,0,0c-0.3,0.3-0.4,0.6-0.4,1C51.5,4.4,51.6,4.7,51.9,5z"/>
				<path class="st4" d="M60.3,6.2c-0.6,0-1.1-0.2-1.5-0.6c-0.4-0.4-0.7-1-0.7-1.6c0-0.6,0.2-1.2,0.7-1.6c0.5-0.4,1-0.6,1.7-0.6
					c0.6,0,1.2,0.2,1.7,0.7l-0.5,0.7c-0.3-0.3-0.7-0.5-1.1-0.5c-0.4,0-0.7,0.1-1,0.4C59.1,3.3,59,3.6,59,4c0,0.8,0.6,1.4,1.4,1.4
					c0,0,0,0,0,0c0.4,0,0.9-0.2,1.1-0.6l0.5,0.6C61.6,6,61,6.2,60.3,6.2z"/>
				<path class="st4" d="M43.2,1C43.1,0.9,43,0.7,43,0.6c0-0.2,0.1-0.3,0.2-0.4c0.2-0.2,0.6-0.2,0.8,0c0,0,0,0,0,0
					c0.1,0.1,0.2,0.3,0.2,0.4c0,0.2,0,0.3-0.1,0.4C43.8,1.2,43.4,1.2,43.2,1C43.2,1,43.2,1,43.2,1L43.2,1z M44.1,6.2h-0.9V1.9h0.9
					V6.2z"/>
				<path class="st4" d="M69.2,3.8v2.3h-0.9V1.9h0.9v0.8c0.1-0.3,0.3-0.5,0.6-0.6c0.3-0.2,0.6-0.2,0.8-0.2c0.6,0,1.1,0.3,1.4,0.9
					c0.4-0.5,1-0.8,1.6-0.9c0.4,0,0.9,0.1,1.2,0.4c0.3,0.4,0.5,0.8,0.4,1.3v2.7h-0.9V3.8c0-0.8-0.3-1.2-1-1.2
					c-0.3,0-0.6,0.1-0.8,0.3c-0.2,0.2-0.4,0.5-0.4,0.9v2.4h-0.9V3.8c0-0.3-0.1-0.6-0.2-0.9c-0.2-0.2-0.4-0.3-0.7-0.3
					c-0.3,0-0.6,0.1-0.8,0.3C69.3,3.2,69.2,3.5,69.2,3.8z"/>
				<path class="st4" d="M66.6,5.6c-0.9,0.9-2.3,0.9-3.2,0c-0.4-0.4-0.7-1-0.7-1.6c0-0.6,0.2-1.2,0.7-1.6c0.9-0.9,2.3-0.9,3.2,0
					c0.4,0.4,0.7,1,0.7,1.6C67.3,4.6,67,5.2,66.6,5.6z M64,5c0.5,0.6,1.4,0.6,2,0c0,0,0,0,0,0c0.3-0.3,0.4-0.6,0.4-1
					c0-0.4-0.1-0.7-0.4-1c-0.5-0.6-1.4-0.6-2,0c0,0,0,0,0,0c-0.3,0.3-0.4,0.6-0.4,1C63.6,4.4,63.7,4.7,64,5z"/>
			</g>
		</g>
	</g>
</g>
<text transform="matrix(1 0 0 1 0 7.3202)" class="st3 st5 st6">Desenvolvido com</text>
</svg>
