<?xml version="1.0" encoding="iso-8859-1"?>
<!-- Generator: Adobe Illustrator 19.0.0, SVG Export Plug-In . SVG Version: 6.00 Build 0)  -->
<svg version="1.1" id="Capa_1" xmlns="http://www.w3.org/2000/svg" xmlns:xlink="http://www.w3.org/1999/xlink" x="0px" y="0px"
	 viewBox="0 0 512 512" style="enable-background:new 0 0 512 512;" xml:space="preserve">
<g>
	<g>
		<path d="M434.032,103.904c-45.332-20.354-104.66-32.013-167.993-33.129V54.813c0-5.545-4.495-10.039-10.039-10.039
			c-5.545,0-10.039,4.495-10.039,10.039v15.961C182.627,71.892,123.3,83.55,77.968,103.904C27.69,126.479,0,157.463,0,191.15
			c0,5.545,4.495,10.039,10.039,10.039h235.922v245.958h-87.34c-5.545,0-10.039,4.495-10.039,10.039s4.495,10.039,10.039,10.039
			h194.758c5.544,0,10.039-4.494,10.039-10.039s-4.496-10.039-10.039-10.039h-87.34V319.245c8.857,3.88,15.062,12.726,15.062,22.998
			v0.502c0,5.545,4.496,10.039,10.039,10.039s10.039-4.495,10.039-10.039v-0.502c0-21.461-15.046-39.461-35.14-44.039v-97.014
			h235.922c5.544,0,10.039-4.495,10.039-10.039C512,157.463,484.311,126.479,434.032,103.904z M21.38,181.111
			c1.046-4.094,2.727-8.168,5.005-12.195h55.191c5.545,0,10.039-4.495,10.039-10.039c0-5.545-4.495-10.039-10.039-10.039H43.198
			c10.865-9.658,25.341-18.691,42.993-26.617c28.544-12.816,63.123-21.991,100.928-27.014
			c-25.046,20.119-42.008,50.912-44.753,85.905H21.38z M162.515,181.111c4.729-50.662,44.85-90.356,93.486-90.356
			s88.758,39.694,93.486,90.356H162.515z M369.635,181.112v-0.001c-2.746-34.993-19.707-65.786-44.753-85.905
			c37.805,5.024,72.384,14.197,100.928,27.014c36.375,16.332,59.305,37.356,64.81,58.891H369.635z"/>
	</g>
</g>
<g>
	<g>
		<circle cx="117.216" cy="158.879" r="10.039"/>
	</g>
</g>
<g>
</g>
<g>
</g>
<g>
</g>
<g>
</g>
<g>
</g>
<g>
</g>
<g>
</g>
<g>
</g>
<g>
</g>
<g>
</g>
<g>
</g>
<g>
</g>
<g>
</g>
<g>
</g>
<g>
</g>
</svg>
